<?xml version="1.0" standalone="no"?>
<!DOCTYPE svg PUBLIC "-//W3C//DTD SVG 20010904//EN"
 "http://www.w3.org/TR/2001/REC-SVG-20010904/DTD/svg10.dtd">
<svg version="1.0" xmlns="http://www.w3.org/2000/svg"
 width="692.000000pt" height="740.000000pt" viewBox="0 0 692.000000 740.000000"
 preserveAspectRatio="xMidYMid meet">

<g transform="translate(0.000000,740.000000) scale(0.100000,-0.100000)"
fill="#000000" stroke="none">
<path d="M0 6651 l0 -749 25 -6 c43 -11 62 18 30 44 -18 15 -20 60 -2 83 9 13
20 16 44 11 28 -5 31 -9 23 -25 -10 -17 -14 -72 -9 -109 1 -8 -2 -23 -6 -34
-7 -16 -6 -17 14 -7 26 14 61 6 61 -14 0 -8 -10 -20 -22 -26 -13 -7 -27 -18
-31 -26 -5 -7 -13 -10 -19 -7 -7 5 -9 2 -5 -9 7 -19 -12 -27 -64 -27 -21 0
-39 -4 -39 -10 0 -5 17 -10 38 -10 30 0 45 -8 75 -37 32 -31 38 -42 35 -72 -2
-26 -7 -36 -20 -35 -11 1 -31 -25 -60 -77 -26 -47 -48 -77 -56 -74 -9 3 -12
-245 -12 -1220 l0 -1225 59 0 c78 0 118 -31 112 -87 -2 -23 -18 -14 -31 17
-26 63 -81 77 -121 33 -17 -20 -18 -23 -3 -10 48 40 124 -2 122 -69 -1 -24 -5
-30 -22 -30 -12 1 -21 -5 -21 -14 0 -9 8 -14 21 -13 17 2 23 -5 28 -29 3 -17
4 -33 1 -36 -3 -3 -5 2 -5 11 0 21 -9 21 -34 2 -11 -8 -33 -15 -48 -15 -25 0
-28 -3 -22 -24 4 -18 0 -28 -15 -38 l-21 -13 1 -1305 c1 -1123 3 -1301 15
-1273 18 41 29 47 46 26 23 -30 123 -79 132 -64 3 4 -24 23 -60 41 -36 18 -68
38 -70 45 -7 18 47 96 61 87 27 -16 73 -60 84 -80 14 -27 14 -27 -43 -2 -25
10 -46 16 -46 12 1 -7 91 -65 94 -60 0 2 7 13 14 26 11 20 10 26 -8 50 -12 14
-37 35 -57 47 -42 23 -52 42 -28 52 12 4 29 -6 56 -35 24 -26 47 -42 61 -42
22 1 22 1 4 12 -35 20 -107 102 -101 116 6 16 37 2 57 -27 15 -22 96 -66 104
-58 3 3 -11 15 -33 26 -21 11 -56 37 -77 56 l-40 36 19 36 c11 19 40 53 64 75
l46 40 20 -26 c11 -14 27 -26 34 -26 7 0 32 -12 57 -26 65 -38 53 -16 -16 31
-68 46 -84 68 -41 55 16 -4 38 -13 50 -20 12 -6 27 -10 33 -8 6 2 -15 18 -48
34 -67 34 -76 54 -49 110 12 25 21 34 32 30 12 -5 14 -1 10 16 -4 12 0 29 7
38 7 8 16 26 19 40 23 104 41 170 55 202 13 32 18 36 36 27 20 -10 20 -9 3 5
-13 10 -17 21 -12 36 6 18 9 20 25 8 10 -7 33 -24 51 -36 l34 -24 -27 25 c-15
14 -37 32 -49 40 -24 18 -19 53 6 43 8 -3 15 -1 15 3 0 5 -6 11 -12 14 -10 3
-10 9 -2 28 7 13 25 53 42 89 16 36 45 88 65 117 30 44 42 84 46 146 1 4 11 2
24 -4 21 -12 22 -11 4 8 -18 21 -14 58 6 46 6 -3 7 -1 3 6 -8 13 27 117 57
171 11 19 37 70 60 113 22 42 43 77 48 77 5 0 6 7 3 15 -8 21 25 121 58 178
15 26 28 50 28 53 0 3 25 56 55 118 44 91 66 123 115 170 33 32 60 59 60 61 0
2 5 16 10 30 9 23 13 25 25 15 8 -7 22 -9 32 -5 10 4 33 7 51 6 21 -2 34 3 38
13 3 9 12 16 18 16 13 0 56 41 56 54 0 17 -27 34 -41 25 -23 -15 -69 -10 -76
7 -5 14 -9 13 -25 -7 -11 -13 -16 -17 -12 -9 7 13 5 13 -9 1 -15 -12 -17 -11
-17 11 0 25 37 68 58 68 6 0 13 4 16 8 3 5 -16 6 -41 2 -33 -5 -54 -16 -70
-35 -13 -15 -26 -25 -28 -23 -3 3 16 26 41 52 40 42 49 47 75 42 16 -3 43 -9
61 -12 41 -9 50 -19 68 -73 8 -24 19 -45 26 -48 7 -2 45 18 85 46 40 28 76 51
80 51 9 0 5 -15 -24 -79 -10 -25 -20 -54 -22 -65 -4 -41 -18 -71 -42 -98 -19
-20 -24 -33 -19 -52 3 -14 2 -28 -4 -31 -5 -3 -10 -11 -10 -16 0 -6 5 -7 10
-4 5 3 10 2 10 -4 0 -6 -12 -14 -26 -17 -19 -5 -23 -9 -12 -16 10 -7 9 -11 -6
-23 -17 -13 -17 -15 -3 -21 27 -10 19 -24 -13 -24 -16 0 -30 -5 -30 -11 0 -5
4 -8 8 -5 11 7 38 -11 29 -20 -8 -8 -59 -8 -87 1 -11 3 -20 2 -20 -3 0 -5 26
-14 58 -18 64 -10 73 -29 12 -28 -46 1 -45 -5 0 -15 37 -7 41 -23 8 -32 -20
-5 -21 -7 -5 -14 9 -4 17 -11 17 -15 0 -12 -39 -19 -46 -9 -3 5 -11 9 -17 9
-7 0 -3 -7 7 -15 10 -8 22 -12 26 -10 4 3 14 -3 21 -11 12 -15 10 -16 -24 -12
-44 5 -48 -5 -9 -21 23 -10 36 -8 73 8 25 12 78 24 117 27 64 6 72 5 72 -11 0
-11 5 -15 16 -11 9 3 18 6 20 6 2 0 4 9 4 19 0 12 19 31 49 51 27 17 54 37 61
45 6 7 19 11 28 8 10 -2 52 10 94 26 78 32 137 38 194 22 23 -7 48 -3 104 16
51 17 103 26 167 29 52 2 98 6 103 9 9 6 5 54 -11 118 -11 40 -30 48 -51 18
-7 -10 -21 -17 -31 -15 -10 1 -14 -2 -10 -9 4 -6 0 -8 -10 -4 -9 3 -19 1 -23
-5 -5 -7 -2 -8 6 -3 9 6 11 4 6 -4 -5 -7 -13 -10 -20 -8 -11 4 -38 -17 -31
-24 2 -2 -21 -5 -51 -6 -30 -1 -52 2 -50 6 3 4 -1 8 -9 8 -8 0 -12 -4 -9 -9 3
-4 -1 -8 -8 -9 -7 0 -24 -3 -38 -5 -14 -2 -31 -5 -38 -6 -7 -1 -10 -8 -8 -15
3 -8 1 -11 -4 -8 -6 3 -10 2 -10 -4 0 -6 -7 -8 -15 -5 -8 4 -15 1 -15 -6 0 -7
-8 -10 -20 -7 -11 3 -23 1 -26 -4 -10 -16 -31 -9 -41 13 -20 46 13 115 69 144
35 18 87 19 70 2 -7 -7 -12 -16 -12 -20 0 -16 20 -7 63 30 25 20 68 51 97 67
29 17 63 36 74 43 33 20 97 8 123 -23 l23 -26 33 25 c38 29 68 36 48 12 -16
-19 -3 -384 40 -1106 5 -96 14 -242 19 -323 12 -184 12 -247 1 -227 -11 20
-29 135 -35 235 -3 44 -10 109 -17 145 -6 36 -12 121 -14 190 -2 69 -6 145 -9
170 -3 25 -11 124 -16 220 -6 96 -13 192 -16 213 -7 36 -7 37 -26 20 -18 -16
-22 -16 -78 16 l-60 32 7 -31 6 -32 -31 16 c-17 9 -34 20 -37 26 -20 32 -62
-20 -72 -90 -5 -32 -5 -31 -50 -35 -41 -3 -103 -48 -103 -74 0 -8 -3 -11 -7
-8 -3 4 -12 2 -19 -4 -8 -6 -37 -13 -66 -14 -76 -5 -116 -12 -170 -28 -27 -8
-48 -13 -48 -11 0 2 -9 -5 -20 -16 -11 -11 -31 -20 -44 -20 -14 0 -36 -4 -50
-10 -17 -6 -26 -6 -26 1 0 6 -8 5 -22 -2 -28 -15 -49 -35 -43 -41 3 -3 -1 -5
-7 -6 -82 -7 -102 -22 -54 -38 65 -23 175 -27 236 -9 30 8 116 27 190 40 129
24 215 49 344 102 66 27 95 25 130 -10 18 -18 23 -35 25 -88 2 -60 0 -66 -29
-94 -19 -18 -30 -24 -30 -14 0 12 -2 12 -9 -1 -6 -8 -7 -18 -4 -23 3 -5 -16
-29 -43 -53 -51 -47 -78 -52 -113 -22 -12 10 -24 13 -32 7 -8 -5 -40 -11 -71
-15 -32 -4 -55 -10 -53 -15 3 -4 -4 -6 -15 -4 -12 2 -28 1 -37 -2 -14 -6 -14
-7 3 -14 16 -6 15 -8 -11 -14 -16 -4 -37 -13 -45 -20 -8 -7 -40 -18 -70 -26
-30 -7 -71 -26 -91 -41 -20 -15 -41 -28 -46 -28 -19 0 -103 -67 -96 -76 5 -5
4 -6 -1 -2 -4 4 -19 3 -33 -3 -16 -6 -22 -6 -18 1 7 12 -7 13 -21 3 -5 -5 -2
-1 8 8 21 20 11 34 -10 16 -10 -7 -13 -8 -9 -1 12 21 -20 36 -65 31 -61 -7
-138 -29 -138 -39 0 -4 -8 -8 -19 -8 -12 0 -25 13 -35 35 -9 19 -21 35 -26 35
-6 0 -10 9 -10 20 0 24 85 152 94 143 3 -4 6 1 6 9 0 9 7 18 15 22 16 6 21 36
6 36 -6 0 -8 10 -6 22 3 12 -1 28 -8 37 -9 12 -9 13 1 7 6 -4 12 -3 12 3 0 5
-5 13 -10 16 -6 4 -8 10 -6 14 3 4 -9 21 -26 37 -18 16 -27 22 -20 13 18 -24
1 -32 -22 -10 -12 11 -31 29 -43 41 -25 22 -31 68 -11 88 9 9 2 12 -33 11 -29
-1 -35 -3 -16 -6 39 -6 35 -33 -5 -33 -33 0 -34 -9 -1 -15 10 -2 20 -4 22 -4
2 -1 -2 -7 -8 -14 -6 -8 -25 -12 -43 -11 l-33 3 33 -11 c28 -10 32 -15 29 -40
-1 -16 -9 -34 -17 -39 -11 -8 -12 -12 -2 -16 6 -2 12 -14 11 -26 0 -12 -3 -17
-5 -11 -3 7 -30 9 -72 8 -60 -3 -65 -2 -48 11 10 8 24 16 30 18 6 2 8 8 4 12
-9 9 -44 -2 -63 -21 -12 -12 -22 -13 -56 -4 -46 13 -58 8 -39 -15 14 -17 35
-21 24 -4 -4 7 1 9 15 5 11 -3 30 -9 41 -12 11 -3 20 -12 20 -21 0 -12 -7 -14
-32 -9 -18 4 -49 9 -68 11 -30 2 -32 1 -14 -7 28 -13 54 -60 37 -65 -9 -3 -6
-11 7 -26 30 -31 22 -55 -8 -25 -7 7 -12 10 -12 7 0 -3 18 -25 40 -49 24 -26
38 -50 35 -59 -7 -23 51 -81 81 -81 13 0 24 -4 24 -10 0 -13 -21 -13 -55 0
l-27 10 24 -29 c13 -17 31 -30 41 -30 10 -1 16 -5 12 -10 -7 -12 -42 -6 -61
10 -23 19 -16 2 9 -24 13 -12 29 -21 35 -19 19 6 14 -8 -29 -80 -52 -86 -90
-179 -139 -344 -59 -195 -67 -304 -44 -574 4 -49 18 -105 45 -177 l23 -63
2165 1 c1192 0 2154 4 2140 8 -14 5 -78 14 -142 22 -64 7 -117 17 -117 21 0 9
78 5 120 -6 73 -19 367 -39 617 -43 241 -3 282 -2 277 11 -5 12 24 52 81 110
43 44 94 113 120 161 l26 50 -26 -30 c-15 -16 -48 -54 -74 -84 -57 -67 -100
-113 -123 -130 -36 -27 -19 17 25 67 23 26 56 65 72 87 17 21 50 62 75 90 73
84 100 117 106 129 7 13 -156 -153 -233 -237 -28 -32 -56 -57 -62 -57 -26 0
-7 36 43 85 29 29 73 78 96 110 23 31 74 88 113 127 75 73 65 79 -12 8 -25
-22 -47 -40 -51 -40 -4 0 -22 -21 -40 -47 -36 -53 -125 -143 -141 -143 -25 0
-2 43 57 105 36 39 73 81 82 95 9 14 40 46 67 72 140 131 169 159 155 152 -8
-4 -35 -23 -60 -42 -42 -33 -68 -59 -233 -229 -33 -35 -63 -61 -65 -58 -2 2
-1 20 2 39 5 28 31 60 114 144 59 59 129 127 156 150 27 24 47 45 44 47 -6 7
-85 -63 -212 -187 -60 -59 -114 -104 -119 -101 -5 3 -7 17 -4 31 5 25 4 25 -9
8 -7 -11 -16 -33 -20 -50 -3 -17 -14 -42 -25 -56 l-20 -25 7 45 c7 51 -2 47
-31 -13 -18 -38 -40 -53 -40 -27 0 6 -6 14 -14 19 -16 11 2 51 24 51 14 0 49
30 42 36 -2 3 -17 -2 -33 -11 -38 -20 -44 -19 -44 5 0 11 8 23 18 26 9 3 25
10 34 15 10 5 25 9 34 9 19 0 74 38 74 51 0 6 -9 5 -21 -2 -12 -6 -35 -15 -50
-20 -98 -30 -91 -30 -83 -6 10 32 28 42 116 62 44 10 89 27 101 37 20 18 21
19 2 12 -11 -4 -41 -13 -68 -20 -26 -7 -51 -15 -55 -18 -18 -11 -72 -16 -72
-7 0 15 39 48 63 54 114 28 239 76 252 97 8 13 -42 2 -70 -16 -22 -14 -107
-43 -145 -51 -13 -2 -29 -8 -35 -13 -6 -5 -23 -13 -38 -19 -22 -8 -27 -8 -27
4 0 8 8 22 19 32 10 10 27 32 37 48 18 30 18 30 -1 16 -11 -8 -35 -28 -52 -45
-18 -16 -33 -27 -33 -24 0 16 96 126 127 145 20 12 43 36 51 53 9 18 38 50 66
72 28 22 53 44 54 49 8 21 -21 5 -108 -57 -50 -36 -94 -64 -96 -61 -2 2 31 39
73 82 60 59 70 73 44 59 -53 -29 -145 -118 -206 -200 -55 -72 -75 -88 -75 -60
0 24 91 148 157 213 35 35 60 63 54 63 -18 0 -159 -151 -193 -206 -38 -61 -59
-67 -193 -59 -44 2 -136 7 -204 10 -125 6 -145 10 -137 24 3 4 33 4 68 0 106
-14 398 -20 418 -9 11 6 16 17 13 28 -3 12 8 30 35 54 51 46 61 62 33 53 -11
-3 -21 -3 -21 0 0 4 30 39 68 78 37 38 59 67 50 64 -44 -16 1 42 77 101 27 21
28 23 7 18 -22 -4 -23 -3 -9 17 13 20 34 36 93 74 17 11 17 11 -3 6 -44 -10
-21 29 37 64 21 12 26 20 19 29 -7 9 6 22 48 49 32 21 50 35 41 32 -35 -12
-27 13 12 35 40 23 51 38 27 38 -14 0 -107 -58 -107 -67 0 -2 5 -1 12 3 7 4 8
3 4 -4 -4 -6 -13 -9 -20 -6 -12 5 -34 -13 -35 -29 -2 -35 -168 -168 -264 -211
-110 -51 -163 -67 -188 -57 l-24 9 28 11 c16 6 32 11 37 11 5 0 10 5 12 10 2
6 12 12 23 14 40 8 152 61 220 104 142 90 171 112 145 112 -6 0 -22 -11 -35
-25 -14 -13 -25 -22 -25 -19 0 5 -82 -47 -90 -57 -8 -11 -250 -119 -266 -119
-2 0 -4 6 -4 14 0 19 25 38 73 57 23 9 43 22 45 30 3 12 2 12 -6 1 -5 -8 -13
-14 -18 -14 -5 1 -28 -4 -51 -11 -30 -8 -43 -17 -48 -34 -7 -28 -45 -52 -45
-28 0 29 92 112 137 124 23 6 45 16 48 21 10 16 -12 12 -57 -10 -23 -11 -45
-20 -49 -20 -15 0 5 42 28 57 13 9 21 18 19 21 -3 3 -12 -1 -20 -7 -12 -10
-16 -8 -21 9 -5 14 2 40 19 73 l26 52 -25 -30 c-14 -16 -30 -29 -35 -28 -5 2
-14 -15 -20 -38 -13 -46 -61 -106 -78 -95 -10 6 -6 35 7 46 18 15 96 169 89
175 -2 2 -17 -22 -32 -55 -42 -89 -52 -95 -160 -96 -51 0 -98 -4 -106 -9 -17
-10 -44 -16 -78 -15 -15 0 -22 -5 -19 -13 2 -8 19 -10 53 -7 27 3 88 5 137 5
101 0 116 -18 17 -22 -36 -1 -98 -6 -139 -11 -72 -8 -210 -6 -220 3 -11 11 22
17 134 25 30 2 -25 18 -64 19 -25 1 -55 3 -66 5 -11 3 -30 5 -43 5 -14 1 -20
5 -17 12 4 5 19 8 33 5 15 -4 41 -2 57 2 l30 9 -25 8 c-33 12 -36 12 -65 14
-14 0 -25 6 -25 12 0 8 14 10 45 6 25 -4 45 -4 45 -1 0 2 -19 14 -42 25 l-43
19 37 -5 c82 -12 145 -7 196 16 28 13 49 26 47 29 -2 3 7 6 18 6 45 4 67 9 67
16 0 4 19 6 42 5 32 -2 44 -8 46 -21 3 -15 -2 -17 -32 -13 -20 3 -36 1 -36 -3
0 -4 -25 -10 -55 -14 -43 -5 -175 -58 -175 -70 0 -5 35 -4 50 1 8 3 20 7 25 9
6 2 29 10 52 18 49 18 138 25 171 13 21 -8 23 -6 20 27 -1 27 7 48 37 91 22
31 45 64 50 73 31 53 54 82 94 123 80 81 92 98 46 64 -22 -16 -48 -39 -58 -50
-37 -42 -96 -133 -90 -139 4 -3 1 -6 -5 -6 -6 0 -17 -10 -24 -23 -46 -81 -68
-105 -68 -74 0 8 -19 18 -45 24 -42 10 -45 9 -45 -10 0 -11 -3 -17 -7 -14 -3
4 -12 2 -20 -4 -9 -9 -13 -8 -13 0 0 7 -10 9 -27 5 -38 -8 -113 -45 -113 -56
0 -4 -9 -8 -20 -8 -11 0 -20 -4 -20 -9 0 -6 -13 -6 -32 -1 -18 4 -46 11 -62
15 -22 5 -26 9 -16 15 7 4 23 4 36 0 12 -5 24 -7 26 -4 3 2 25 7 49 10 24 3
56 14 70 24 27 19 95 50 107 49 4 -1 14 -1 22 0 11 1 10 5 -5 14 -11 6 -24 12
-30 12 -20 2 -108 -36 -139 -60 -32 -24 -84 -33 -120 -19 -27 10 -18 21 13 16
41 -6 98 15 154 56 36 26 58 35 85 34 19 -1 38 -6 42 -11 3 -6 23 -14 45 -19
22 -5 48 -13 58 -17 24 -10 22 17 -3 32 -10 7 -44 16 -74 19 -31 4 -53 11 -50
16 10 16 -85 1 -114 -18 -15 -9 -38 -27 -52 -39 -30 -28 -120 -39 -120 -14 0
5 4 8 9 5 13 -8 114 24 133 43 38 36 52 44 92 52 30 5 45 4 57 -7 8 -8 30 -14
47 -14 17 0 42 -4 55 -9 22 -8 24 -7 20 10 -5 19 -8 20 -40 23 -10 1 -22 4
-28 7 -5 3 -23 6 -40 7 -16 1 -33 6 -38 11 -10 10 -77 -4 -121 -26 l-31 -16
24 27 c33 35 91 52 128 38 15 -6 35 -10 43 -10 8 1 34 -2 58 -6 35 -7 42 -5
42 8 0 9 -7 17 -15 17 -8 1 -21 2 -27 3 -7 1 -19 -3 -27 -8 -11 -8 -13 -8 -7
2 4 6 4 12 -1 13 -4 1 -24 3 -43 6 -69 10 -124 3 -153 -18 l-29 -21 18 26 c9
15 26 32 38 38 21 12 27 14 59 16 9 1 17 7 17 13 0 15 -77 3 -108 -17 -22 -14
-24 -14 -20 2 1 9 14 25 28 35 29 21 106 37 95 20 -7 -13 -12 -12 93 -16 45
-1 82 2 82 6 0 5 -6 9 -12 10 -7 0 -22 3 -33 5 -11 3 -65 7 -119 9 -77 2 -105
-1 -123 -12 -33 -22 -30 3 4 30 26 21 83 31 83 15 0 -4 9 -8 20 -8 11 0 20 6
20 14 0 14 -70 29 -80 17 -3 -3 -16 -8 -30 -9 -14 -2 -31 -9 -39 -15 -12 -10
-12 -8 -1 13 20 37 42 50 73 44 16 -3 27 -1 27 5 0 14 -55 14 -82 0 -23 -12
-31 -8 -23 12 9 23 55 35 113 29 61 -7 72 12 18 30 -19 6 -37 17 -40 25 -3 8
-15 15 -26 15 -12 0 -18 -5 -15 -10 4 -6 11 -8 16 -4 9 5 38 -22 39 -36 0 -3
-18 -4 -41 -2 -22 3 -46 -1 -52 -7 -6 -6 -15 -11 -19 -11 -16 0 -7 20 19 45
15 14 22 25 15 25 -6 0 -12 -4 -12 -8 0 -14 -38 -11 -44 4 -3 9 -1 12 4 9 6
-3 10 -2 10 4 0 5 9 13 20 16 11 4 18 11 14 16 -4 6 -14 3 -25 -7 -11 -9 -22
-14 -26 -11 -8 9 18 58 28 51 4 -2 10 0 13 5 7 10 -13 9 -30 -2 -18 -10 -25
55 -8 73 18 21 62 23 91 5 25 -17 32 -5 8 15 -18 15 -65 20 -65 7 0 -6 -3 -7
-6 -4 -4 3 -15 2 -26 -4 -18 -10 -19 -5 -17 123 1 73 7 172 13 221 7 48 8 87
4 87 -5 0 -5 8 1 17 6 12 5 26 -5 45 -8 15 -11 35 -7 44 5 13 3 15 -8 9 -11
-7 -12 -6 -2 6 8 10 10 25 4 45 -4 16 -6 35 -4 42 3 6 0 12 -7 12 -6 0 -9 4
-5 9 3 5 0 15 -7 23 -7 7 -14 24 -16 38 -1 13 -8 27 -14 31 -6 4 -12 19 -13
33 -1 23 2 26 25 21 14 -3 50 -9 80 -14 80 -14 100 -23 186 -93 102 -82 161
-116 241 -139 36 -10 79 -27 97 -37 28 -17 35 -17 51 -6 18 14 18 15 -3 35
-20 18 -22 39 -4 39 4 0 23 -15 42 -32 19 -18 42 -33 50 -33 17 0 22 -71 10
-144 -13 -72 10 -99 97 -115 52 -10 146 -89 363 -306 81 -80 175 -181 210
-225 72 -91 240 -341 240 -357 0 -6 6 -19 14 -27 7 -9 30 -47 50 -85 l36 -69
0 521 c0 287 -3 522 -7 522 -5 0 -44 -9 -88 -19 -123 -29 -155 -33 -155 -21 0
5 -5 9 -11 8 -14 -4 -31 51 -23 72 5 13 7 12 13 -2 6 -17 7 -16 19 2 9 15 9
19 1 18 -7 -2 -12 11 -13 30 -1 18 -6 36 -12 40 -7 4 -10 26 -9 50 1 23 -1 42
-5 42 -4 0 -7 8 -6 17 0 10 -6 18 -14 18 -8 0 -16 9 -18 20 -3 17 -1 18 8 5 9
-12 10 -9 6 13 -5 20 -2 27 8 27 8 0 16 -5 18 -10 2 -6 18 -11 36 -13 17 -1
30 -6 28 -12 -2 -5 -12 -9 -22 -8 -18 1 -18 1 0 -13 11 -8 24 -14 29 -14 5 0
7 -9 4 -19 -6 -25 14 -33 44 -17 32 16 30 16 103 16 l65 0 1 210 1 210 -23 1
-23 0 23 9 c29 12 31 60 2 60 -20 0 -90 55 -90 71 0 5 10 9 22 9 26 0 88 40
88 56 0 14 -46 28 -60 19 -6 -4 -10 3 -10 14 0 13 11 24 35 32 34 13 35 14 35
67 0 51 -1 53 -22 46 -34 -10 -52 -29 -83 -87 -16 -28 -64 -106 -108 -172 -64
-97 -78 -124 -73 -147 l5 -27 -25 21 c-20 19 -22 23 -9 30 8 5 15 20 15 33 0
14 5 25 12 25 9 0 8 3 -1 13 -10 9 -15 9 -18 0 -2 -7 -10 -10 -18 -7 -8 3 -15
-2 -18 -13 -2 -10 -3 -6 -2 10 1 15 -2 27 -6 27 -9 0 -5 27 6 37 4 4 5 2 0 -6
-6 -11 -3 -13 13 -9 15 4 22 2 22 -8 0 -33 29 -8 75 68 85 138 100 166 93 173
-11 12 -118 -25 -141 -48 -12 -12 -27 -21 -33 -19 -6 1 -9 -10 -6 -28 l4 -30
-33 14 c-19 7 -39 11 -46 9 -6 -2 -10 4 -8 14 1 10 -2 24 -8 31 -7 9 -6 16 3
25 10 10 11 9 5 -3 -8 -13 -7 -13 9 -1 13 11 14 16 4 22 -7 5 -13 18 -13 30 0
12 -7 24 -15 26 -12 4 -12 3 -2 -5 11 -7 10 -11 -4 -16 -10 -4 -15 -4 -11 0 4
4 2 13 -3 19 -14 17 34 29 60 15 10 -5 28 -10 40 -10 25 0 100 37 100 49 0 9
30 21 106 40 38 10 40 12 36 46 -3 27 -1 35 12 35 23 0 31 -4 28 -13 -1 -4 1
-6 5 -6 30 5 35 -2 17 -23 -18 -20 -18 -21 -1 -15 10 4 23 7 28 7 5 0 9 170 9
416 0 228 -4 413 -8 410 -5 -3 -19 4 -30 15 -33 30 -30 84 8 119 l30 28 0
1351 0 1351 -533 0 -533 0 -42 -48 c-74 -87 -208 -222 -220 -222 -15 0 3 45
30 76 10 11 18 24 18 29 0 5 -27 -17 -60 -50 -33 -33 -60 -65 -60 -73 0 -7 -4
-11 -9 -8 -5 4 -53 -38 -107 -91 -92 -93 -105 -96 -20 -6 31 33 37 46 28 55
-9 9 -3 21 24 55 30 37 34 47 28 78 -5 27 -3 35 8 35 8 0 19 -10 24 -22 6 -13
9 -17 7 -10 -14 67 -24 148 -21 172 l5 30 -514 0 c-282 0 -513 -4 -513 -8 0
-4 -17 -26 -38 -48 -20 -22 -46 -55 -56 -74 -11 -19 -30 -48 -43 -63 -13 -16
-23 -33 -23 -38 0 -5 -5 -9 -11 -9 -6 0 -9 9 -6 20 8 31 -1 24 -23 -20 -12
-23 -28 -44 -36 -47 -8 -3 -24 -22 -34 -43 -11 -21 -36 -55 -57 -76 -20 -22
-36 -43 -35 -47 1 -4 -10 -23 -24 -42 -34 -46 -65 -46 -110 -1 -38 38 -48 84
-15 66 18 -9 139 -15 130 -6 -2 2 -26 7 -53 10 -66 7 -96 36 -96 92 0 62 68
233 105 264 9 7 25 26 36 42 l20 28 -991 0 -991 0 43 -37 c110 -95 160 -188
165 -310 4 -82 -1 -95 -26 -70 -10 10 -14 9 -22 -5 -6 -10 -14 -18 -18 -18 -4
0 -54 64 -112 141 -57 78 -130 177 -163 220 l-58 79 -508 0 -508 0 19 -61 c26
-84 24 -152 -6 -216 l-24 -53 57 -67 c87 -103 91 -108 70 -100 -12 4 -18 2
-18 -8 0 -9 -6 -12 -17 -8 -29 10 -83 65 -83 85 0 11 -5 15 -14 12 -10 -4 -43
24 -93 77 -43 45 -114 120 -158 166 -44 47 -98 104 -121 129 l-41 44 -236 0
-237 0 0 -749z m1202 487 c87 -57 281 -282 325 -376 30 -65 38 -125 18 -142
-12 -10 -13 -8 -10 9 2 12 0 21 -6 21 -5 0 -9 8 -10 18 0 14 -2 14 -9 -3 -8
-19 -9 -19 -9 -1 -1 23 -14 14 -16 -12 -8 -72 -44 -172 -63 -172 -4 0 -13 5
-19 11 -8 8 -5 30 13 82 13 39 22 72 19 75 -2 3 -18 -1 -34 -7 -16 -7 -40 -11
-53 -9 -20 3 -24 10 -28 55 -3 28 -8 55 -12 58 -4 4 -22 -5 -41 -19 -19 -14
-38 -26 -42 -26 -13 0 -55 42 -55 55 0 6 20 24 46 40 36 23 42 30 29 37 -8 5
-20 6 -27 2 -7 -4 -8 -3 -4 4 4 8 0 12 -11 12 -15 0 -16 2 -3 10 12 8 12 10 1
10 -10 0 -11 3 -2 14 10 12 8 17 -8 26 -12 6 -21 16 -21 23 0 7 4 6 10 -3 5
-8 10 -12 10 -8 0 3 3 14 6 23 5 13 2 16 -17 13 -13 -2 -23 -9 -21 -16 1 -8
-2 -11 -8 -7 -8 5 -7 11 1 21 9 11 9 14 0 14 -7 0 -9 5 -6 10 3 6 2 10 -4 10
-15 0 -56 72 -56 100 0 14 7 28 15 33 9 4 5 6 -12 4 -32 -5 -37 7 -10 22 24
14 96 7 124 -11z m4373 -18 c3 -5 1 -10 -4 -10 -6 0 -11 5 -11 10 0 6 2 10 4
10 3 0 8 -4 11 -10z m-330 -286 c-81 -99 -118 -134 -139 -133 -21 0 -21 0 -1
8 11 5 55 47 98 95 43 47 80 86 83 86 2 0 -16 -25 -41 -56z m-4097 -97 c29
-31 52 -60 52 -64 0 -7 -91 85 -120 122 -33 42 17 -1 68 -58z m2782 -51 c0
-19 -39 -66 -54 -66 -20 0 -47 -35 -40 -53 6 -17 -80 -147 -98 -147 -6 0 -8
13 -6 30 4 24 1 30 -9 25 -8 -3 -21 -5 -29 -5 -8 0 -14 -4 -14 -10 0 -5 6 -7
14 -4 9 3 17 -3 21 -15 7 -24 -2 -61 -16 -61 -16 0 -10 -26 11 -45 11 -10 20
-24 20 -31 0 -7 10 -18 23 -25 12 -6 48 -37 79 -69 31 -32 66 -61 77 -65 12
-3 21 -12 21 -19 0 -7 16 -30 35 -52 42 -46 125 -167 125 -182 0 -5 6 -12 14
-15 8 -3 20 -23 27 -44 6 -20 18 -44 26 -51 7 -7 13 -20 13 -29 0 -8 8 -27 19
-41 10 -15 19 -34 19 -42 2 -32 15 -76 27 -90 6 -8 22 -71 34 -140 12 -69 25
-142 30 -163 8 -37 8 -37 -10 -21 -12 11 -17 25 -14 35 4 11 -2 27 -14 41 -12
12 -21 27 -21 34 0 22 -22 64 -31 58 -4 -2 -5 11 -2 31 4 24 2 35 -7 35 -8 0
-10 -8 -7 -21 5 -17 3 -19 -6 -10 -8 8 -7 19 7 42 17 29 17 32 2 47 -12 13
-16 13 -16 2 0 -7 -11 9 -25 35 -13 27 -23 51 -21 53 7 6 -41 52 -55 53 -10 0
-11 2 -1 6 17 7 15 42 -3 49 -8 4 -15 12 -15 20 0 8 -9 14 -20 14 -11 0 -20 7
-20 15 0 8 -4 15 -10 15 -5 0 -10 7 -10 16 0 10 -6 14 -14 11 -8 -3 -25 2 -38
12 -13 10 -30 21 -38 24 -10 4 -8 6 7 6 22 1 44 21 23 21 -15 0 -81 65 -74 73
3 3 13 3 22 -1 16 -5 16 -4 0 11 -18 19 -33 23 -23 7 3 -5 -1 -10 -10 -10 -20
0 -81 49 -77 62 1 4 -7 8 -18 8 -11 0 -20 4 -20 9 0 5 -8 11 -19 14 -14 3 -18
12 -15 33 4 27 0 21 -12 -15 -4 -11 -8 -10 -19 5 -10 15 -16 16 -26 7 -9 -9
-8 -15 4 -28 9 -9 19 -16 22 -15 26 1 38 -3 62 -25 15 -13 22 -25 16 -25 -7 0
-13 3 -13 8 0 10 -50 32 -73 32 -11 0 -15 -4 -11 -12 4 -7 3 -8 -4 -4 -6 4 -9
13 -5 21 6 18 -8 20 -25 3 -14 -14 -17 3 -3 18 14 15 25 58 13 50 -6 -3 -13
-2 -17 4 -3 5 -1 10 4 10 6 0 11 4 11 9 0 5 -15 5 -35 1 -20 -5 -33 -4 -29 1
3 5 -2 9 -10 9 -9 0 -16 4 -16 8 0 4 -9 8 -19 9 -13 1 -21 -6 -24 -20 -2 -12
-3 -7 -1 11 2 21 -1 30 -8 26 -6 -4 -19 4 -30 17 -10 13 -16 17 -12 8 3 -10 0
-20 -7 -25 -8 -4 -10 -3 -5 4 4 7 2 12 -4 12 -6 0 -8 5 -4 11 4 7 1 10 -7 7
-8 -3 -24 -1 -36 3 -20 7 -23 5 -23 -17 0 -14 4 -22 10 -19 5 3 17 2 26 -3 12
-6 7 -9 -19 -8 -19 1 -33 5 -32 11 2 5 6 23 10 39 6 27 5 28 -11 15 -15 -12
-16 -12 -10 9 6 17 4 21 -8 16 -9 -3 -16 -10 -16 -14 0 -15 -63 -3 -76 14 -14
20 -12 24 -27 -49 -3 -14 -5 -11 -6 9 -1 25 -4 27 -25 22 -15 -4 -26 -1 -29 7
-4 9 -7 9 -15 -1 -7 -11 -12 -10 -26 3 -16 16 -17 16 -10 -9 5 -22 3 -26 -15
-26 -12 0 -21 5 -21 11 0 5 -5 7 -12 3 -8 -5 -9 -2 -5 9 3 10 2 17 -4 17 -6 0
-17 7 -26 16 -9 8 -22 13 -30 9 -11 -3 -13 -1 -9 10 3 8 1 15 -4 15 -21 0 -10
-39 13 -43 12 -2 7 -3 -10 -1 -18 1 -35 -2 -39 -7 -3 -5 -9 -7 -14 -4 -5 3
-15 -3 -22 -15 -18 -28 -36 -25 -30 5 3 21 1 24 -13 19 -13 -5 -14 -9 -3 -15
8 -6 1 -9 -22 -9 -23 0 -42 -7 -53 -20 -20 -24 -53 -26 -65 -4 -8 14 -14 15
-46 3 -20 -7 -35 -18 -32 -24 2 -5 9 -9 15 -8 6 2 11 -2 11 -7 0 -6 -3 -10 -7
-11 -30 -3 -50 -7 -64 -13 -11 -5 -18 -1 -22 13 -4 18 -8 18 -38 8 -19 -7 -39
-16 -46 -20 -6 -4 -13 -1 -16 5 -3 10 -7 10 -18 1 -8 -7 -25 -10 -37 -6 -13 3
-22 1 -22 -6 0 -7 4 -10 9 -6 5 3 13 -4 16 -15 5 -15 0 -27 -15 -40 -14 -12
-17 -19 -9 -22 7 -2 9 -10 5 -17 -6 -9 -11 -10 -19 -2 -6 6 -19 11 -30 11 -10
0 -15 5 -12 10 3 6 2 10 -4 10 -5 0 -13 -4 -16 -10 -3 -5 -19 -10 -35 -10 -16
0 -32 -5 -36 -11 -5 -8 1 -10 20 -7 14 3 29 1 32 -4 3 -5 13 -3 22 4 14 11 15
10 9 -6 -6 -16 -5 -17 8 -6 19 16 35 4 66 -48 20 -35 20 -36 1 -19 -17 16 -20
16 -25 3 -4 -9 -3 -15 1 -15 19 3 22 -2 8 -16 -20 -20 -23 -19 -41 14 -14 28
-14 30 5 36 11 4 20 13 20 21 0 19 -20 18 -36 -3 -8 -11 -13 -13 -14 -5 0 20
-21 14 -47 -14 -23 -25 -24 -27 -6 -46 10 -11 16 -21 14 -22 -7 -2 10 -46 19
-46 4 0 11 -7 14 -16 5 -13 2 -15 -15 -11 -15 4 -19 2 -15 -9 6 -17 1 -18 -25
-3 -12 6 -18 17 -15 25 3 8 2 12 -3 9 -5 -3 -12 -1 -16 5 -3 5 -2 10 2 10 5 0
14 9 21 20 10 17 10 20 -3 20 -8 0 -15 -8 -15 -17 0 -13 -3 -14 -11 -6 -9 9
-18 8 -35 -4 -13 -8 -22 -19 -19 -23 3 -5 0 -12 -6 -16 -8 -5 -9 -3 -4 6 6 10
4 12 -8 7 -9 -3 -17 -1 -19 4 -2 6 -11 7 -20 4 -20 -8 -32 -55 -23 -87 6 -21
5 -22 -8 -5 -13 15 -15 16 -21 2 -3 -8 -1 -15 3 -15 5 0 12 -7 15 -16 6 -14 4
-15 -10 -4 -13 12 -17 11 -24 0 -5 -9 -5 -17 1 -21 6 -3 4 -11 -6 -19 -9 -7
-13 -22 -10 -34 3 -12 2 -15 -1 -8 -5 10 -9 9 -20 -5 -13 -17 -13 -17 -14 5 0
12 5 22 10 22 6 0 10 11 10 24 0 14 5 28 11 32 6 4 9 20 6 39 -3 18 0 38 5 43
8 8 3 10 -17 6 -22 -4 -26 -2 -22 11 4 8 3 15 -2 15 -10 0 -1 61 11 78 20 24
34 12 47 -39 l13 -51 20 31 c11 16 18 38 16 48 -2 11 8 26 27 38 16 12 30 28
30 36 0 8 10 29 23 46 12 17 22 36 22 42 0 6 5 11 10 11 6 0 10 7 10 15 0 8 9
19 20 25 23 12 25 8 8 -19 -9 -15 -9 -23 1 -35 16 -19 37 -21 47 -5 4 8 -1 9
-17 5 -23 -7 -23 -7 -5 8 14 11 15 16 6 16 -11 0 -11 3 -2 12 7 7 8 16 3 22
-5 6 -11 27 -13 46 -3 31 -1 35 21 34 13 0 35 10 49 23 14 12 32 23 40 23 8 0
12 3 9 6 -4 4 6 18 21 31 29 25 134 98 142 98 9 1 50 39 50 48 0 4 -10 19 -23
33 -13 13 -31 38 -41 54 -17 30 -17 30 8 42 15 6 26 15 26 20 0 11 -45 28 -76
28 -28 0 -44 28 -23 41 8 5 46 9 84 9 103 0 192 -46 249 -129 l27 -38 76 14
c89 17 356 13 388 -5 11 -6 41 -14 68 -17 26 -3 47 -10 47 -15 0 -5 21 -16 48
-24 26 -9 66 -27 88 -40 l42 -24 38 75 c46 91 125 175 186 196 56 20 118 22
118 3z m1180 0 c0 -2 -8 -10 -17 -17 -16 -13 -17 -12 -4 4 13 16 21 21 21 13z
m-300 -380 c0 -2 -7 -7 -16 -10 -8 -3 -12 -2 -9 4 6 10 25 14 25 6z m-130 -84
c0 -13 -90 -125 -96 -119 -2 1 13 33 32 71 19 38 34 75 34 84 0 13 3 12 15 -4
8 -10 15 -25 15 -32z m-1745 16 c5 4 5 1 1 -5 -10 -19 -36 -16 -36 3 0 13 3
14 13 5 8 -6 18 -7 22 -3z m338 2 c7 -1 -1 -8 -16 -16 -32 -17 -43 -13 -33 12
4 10 12 14 22 10 9 -3 21 -6 27 -6z m42 -10 c3 -5 1 -10 -4 -10 -6 0 -11 5
-11 10 0 6 2 10 4 10 3 0 8 -4 11 -10z m-615 -24 c0 -3 -4 -8 -10 -11 -5 -3
-10 -1 -10 4 0 6 5 11 10 11 6 0 10 -2 10 -4z m-140 -50 c0 -3 -4 -8 -10 -11
-5 -3 -10 -1 -10 4 0 6 5 11 10 11 6 0 10 -2 10 -4z m970 -14 c0 -7 15 -11 57
-14 7 -1 10 -5 7 -9 -2 -5 -16 -4 -29 1 -15 6 -27 6 -30 -1 -4 -5 -11 -7 -16
-4 -12 8 -12 35 1 35 6 0 10 -4 10 -8z m-1020 -49 c0 -6 -4 -14 -9 -17 -5 -4
-7 3 -4 15 5 16 2 20 -13 17 -11 -2 -22 -7 -25 -12 -4 -5 -12 -5 -18 -2 -13 8
4 29 29 38 16 5 39 -18 40 -39z m-667 20 c-6 -17 -5 -17 13 -1 13 11 24 14 35
8 19 -11 45 -68 35 -77 -3 -3 -6 -1 -6 5 0 19 -32 14 -57 -10 -26 -24 -43 -17
-26 11 10 15 7 17 -18 13 -40 -6 -51 24 -20 50 30 23 52 24 44 1z m4651 11
c21 -8 21 -24 0 -24 -11 0 -14 -5 -10 -17 4 -9 1 -20 -6 -25 -7 -4 1 -5 19 -2
26 5 34 3 39 -11 4 -10 3 -25 -3 -34 -6 -9 -7 -26 -3 -37 6 -15 3 -24 -12 -33
-17 -10 -20 -9 -25 8 -3 12 -9 19 -13 16 -5 -3 -21 6 -37 19 -27 24 -28 24 -9
45 17 19 17 21 2 21 -13 0 -15 4 -7 19 9 16 8 18 -9 14 -33 -9 -23 17 13 32
37 17 40 17 61 9z m-4059 -62 c-3 -3 -11 0 -18 7 -9 10 -8 11 6 5 10 -3 15 -9
12 -12z m2105 -5 c0 -11 -42 -25 -58 -20 -9 4 -10 9 -1 19 12 14 59 16 59 1z
m-2059 -14 c13 -16 12 -17 -3 -4 -10 7 -18 15 -18 17 0 8 8 3 21 -13z m882
-12 c101 -25 184 -65 280 -134 43 -31 88 -62 99 -68 45 -24 118 -102 118 -125
0 -13 5 -24 11 -24 5 0 8 -4 5 -9 -3 -5 1 -15 10 -22 10 -8 13 -21 9 -36 -3
-13 0 -33 7 -46 7 -12 11 -25 10 -29 -1 -5 2 -8 7 -8 9 0 25 -49 26 -78 0 -8
7 -19 15 -25 9 -7 17 -30 19 -52 1 -22 4 -55 6 -73 2 -28 1 -31 -13 -20 -8 7
-17 12 -19 11 -11 -8 -22 -1 -17 11 3 8 12 12 20 9 8 -3 14 -1 14 5 0 5 -8 9
-17 9 -62 0 -83 4 -83 17 0 7 -25 23 -56 35 -62 24 -67 25 -60 12 3 -4 -6 -6
-21 -3 -17 3 -24 1 -19 -6 9 -15 -54 3 -71 20 -16 16 -147 12 -137 -4 4 -7 2
-8 -5 -4 -7 4 -34 3 -60 -4 -27 -6 -55 -13 -62 -14 -8 -2 -21 -5 -29 -8 -8 -3
-42 -12 -75 -19 -33 -7 -67 -14 -75 -16 -8 -2 -27 -4 -42 -6 -16 -1 -28 -5
-28 -8 0 -8 -84 -64 -87 -58 -1 2 -9 -5 -18 -16 -9 -11 -14 -14 -10 -7 6 11
-23 18 -50 12 -30 -7 -41 -7 -50 0 -16 11 -104 28 -165 30 -161 7 -409 0 -416
-11 -2 -5 -11 -6 -19 -3 -12 5 -12 10 -4 27 7 12 9 43 5 78 -7 75 -9 83 -21
91 -6 5 -6 8 2 8 12 0 7 37 -8 56 -15 19 11 81 77 180 67 101 108 145 180 195
73 50 193 97 289 112 17 3 55 12 85 20 74 22 95 23 240 20 83 -1 151 -9 203
-22z m-930 12 c-7 -2 -19 -2 -25 0 -7 3 -2 5 12 5 14 0 19 -2 13 -5z m2059
-45 l-22 -22 0 22 c0 13 4 21 9 17 5 -3 13 0 16 6 4 5 10 8 13 4 3 -3 -4 -15
-16 -27z m-2567 -37 c-3 -12 -11 -19 -16 -16 -5 4 -3 14 3 25 15 24 22 19 13
-9z m1954 -53 c-8 -16 -6 -23 12 -39 12 -10 17 -19 11 -19 -6 0 -14 5 -17 10
-4 6 -10 8 -15 5 -4 -3 -10 2 -14 10 -3 8 -1 17 4 20 19 12 10 34 -19 51 -17
10 -28 21 -25 26 3 4 21 -4 39 -18 29 -22 33 -29 24 -46z m3015 -7 c18 -7 17
-9 -10 -28 -54 -37 -54 -37 -50 -1 3 18 5 34 5 36 2 4 36 0 55 -7z m-395 -33
c7 -19 3 -28 -25 -51 -19 -16 -44 -47 -55 -69 -18 -36 -22 -39 -35 -26 -14 13
-11 23 22 84 21 38 43 72 48 76 20 14 37 8 45 -14z m-4321 -41 c-1 -7 6 -25
17 -41 14 -21 16 -31 7 -34 -6 -2 -12 -10 -12 -18 0 -18 -14 -18 -29 0 -10 11
-10 31 -2 109 1 5 6 5 11 2 6 -4 9 -12 8 -18z m1812 -17 c0 -5 -8 -10 -17 -10
-15 0 -16 2 -3 10 19 12 20 12 20 0z m-1870 -4 c0 -3 -4 -8 -10 -11 -5 -3 -10
-1 -10 4 0 6 5 11 10 11 6 0 10 -2 10 -4z m-1390 -110 c0 -79 1 -85 26 -101
14 -9 24 -18 22 -20 -1 -1 -28 1 -58 5 -30 4 -61 5 -68 2 -22 -8 -42 -59 -42
-109 0 -31 -3 -44 -10 -37 -39 39 -1 152 58 168 30 8 32 12 32 55 0 54 17 121
30 121 6 0 10 -37 10 -84z m1390 75 c0 -5 -7 -11 -15 -15 -15 -5 -20 5 -8 17
9 10 23 9 23 -2z m1871 -14 c-6 -8 -9 -17 -6 -21 3 -3 0 -2 -6 3 -12 10 -4 31
13 31 7 0 7 -4 -1 -13z m59 -37 c0 -5 -5 -10 -11 -10 -5 0 -7 5 -4 10 3 6 8
10 11 10 2 0 4 -4 4 -10z m-1930 -61 c0 -23 -26 -44 -35 -29 -4 7 -16 9 -27 7
-12 -4 -18 -1 -15 6 3 7 10 11 17 9 6 -1 17 11 23 27 10 27 12 28 24 13 7 -9
13 -24 13 -33z m4455 21 c7 -12 -12 -40 -27 -40 -6 0 -8 7 -4 15 3 8 1 15 -5
15 -6 0 -7 5 -4 10 8 13 32 13 40 0z m-2497 -12 c-3 -7 1 -19 9 -26 7 -8 10
-18 7 -23 -3 -6 -13 -3 -23 8 -14 14 -15 22 -7 36 13 20 19 22 14 5z m1842
-37 c13 -26 13 -84 -1 -115 -13 -28 -30 -26 -22 2 2 10 -3 24 -11 31 -16 13
-22 81 -9 94 12 13 32 7 43 -12z m-3917 -98 c-3 -7 -9 -11 -13 -8 -5 3 -10 1
-12 -5 -8 -22 -29 8 -23 33 7 26 8 26 30 9 12 -9 20 -23 18 -29z m55 16 c10
-13 10 -19 0 -27 -10 -8 -14 -3 -15 20 -1 17 -1 29 0 27 2 -2 8 -11 15 -20z
m52 7 c0 -2 -8 -10 -17 -17 -16 -13 -17 -12 -4 4 13 16 21 21 21 13z m-1290
-98 c0 -26 -4 -50 -10 -53 -6 -4 -10 11 -10 38 0 25 -3 60 -6 78 l-5 34 15
-25 c8 -14 15 -46 16 -72z m3322 70 c-7 -7 -12 -8 -12 -2 0 14 12 26 19 19 2
-3 -1 -11 -7 -17z m-3368 -51 c19 -44 16 -64 -11 -74 -10 -4 -21 -11 -24 -15
-10 -15 14 -88 29 -88 7 0 11 4 7 9 -8 13 10 22 29 15 21 -8 21 -24 0 -24 -13
0 -14 -3 -5 -14 11 -13 4 -49 -20 -101 -24 -52 -17 -67 43 -96 58 -29 62 -34
73 -106 5 -34 4 -43 -7 -43 -23 0 -27 10 -18 36 13 33 -14 33 -36 -1 -9 -14
-22 -25 -30 -25 -7 0 -16 -4 -19 -10 -4 -6 6 -7 25 -4 18 4 30 2 30 -4 0 -18
-12 -42 -21 -42 -5 0 -63 36 -128 80 -66 44 -125 80 -130 80 -6 0 -11 4 -11 8
0 5 -39 35 -86 66 -47 31 -84 62 -81 69 4 12 25 24 87 50 49 20 84 31 92 29 5
-1 7 1 6 6 -1 4 8 27 21 51 20 38 25 42 49 37 53 -13 57 -12 54 13 -1 13 -14
32 -28 43 -34 27 -31 79 5 85 14 2 26 4 27 6 1 1 16 2 32 3 24 1 31 -5 46 -39z
m1366 -3 c0 -2 -9 0 -20 6 -11 6 -20 13 -20 16 0 2 9 0 20 -6 11 -6 20 -13 20
-16z m3719 -6 c9 -25 3 -58 -10 -58 -4 0 -3 -14 3 -31 10 -29 13 -31 58 -27
47 3 47 3 38 -21 -11 -31 -46 -61 -70 -61 -11 0 -28 -5 -39 -11 -25 -13 -59
-3 -59 19 0 8 10 26 22 39 29 31 29 71 1 100 -30 30 -29 49 5 61 39 15 42 14
51 -10z m-3754 -18 c3 -5 -1 -10 -10 -10 -9 0 -13 5 -10 10 3 6 8 10 10 10 2
0 7 -4 10 -10z m3845 -46 c0 -8 -4 -12 -10 -9 -5 3 -10 13 -10 21 0 8 5 12 10
9 6 -3 10 -13 10 -21z m-5320 -4 c0 -5 -7 -7 -15 -4 -8 4 -15 8 -15 10 0 2 7
4 15 4 8 0 15 -4 15 -10z m1429 -40 c6 0 11 -4 11 -10 0 -18 -29 -11 -40 9
-14 28 -12 39 4 19 7 -10 18 -18 25 -18z m-52 -2 c-3 -8 -6 -5 -6 6 -1 11 2
17 5 13 3 -3 4 -12 1 -19z m53 -48 c8 -5 11 -10 5 -10 -5 0 -17 5 -25 10 -8 5
-10 10 -5 10 6 0 17 -5 25 -10z m-52 -85 c-3 -3 -9 2 -12 12 -6 14 -5 15 5 6
7 -7 10 -15 7 -18z m2306 -54 c1 -27 -2 -47 -6 -44 -5 2 -8 22 -8 44 0 25 -4
38 -12 37 -7 -2 -13 7 -14 19 -1 20 0 21 19 8 16 -11 21 -26 21 -64z m-364 59
c-36 -4 -92 -7 -125 -7 l-60 0 60 7 c33 4 89 7 125 7 l65 0 -65 -7z m-212 -17
c-10 -2 -28 -2 -40 0 -13 2 -5 4 17 4 22 1 32 -1 23 -4z m2196 -2 c7 -11 -44
-45 -66 -44 -9 1 -18 -7 -21 -17 -6 -25 -47 -47 -47 -25 0 8 -5 15 -11 15 -20
0 -104 -21 -122 -31 -24 -13 -30 -7 -14 14 13 18 123 51 143 43 7 -3 15 1 17
8 11 29 108 59 121 37z m-2487 -57 c-3 -3 -12 -4 -19 -1 -8 3 -5 6 6 6 11 1
17 -2 13 -5z m-40 -10 c-3 -3 -12 -4 -19 -1 -8 3 -5 6 6 6 11 1 17 -2 13 -5z
m-316 -55 c36 -25 37 -46 4 -59 -30 -12 -105 -19 -122 -12 -22 7 -14 42 11 51
13 5 26 17 29 25 9 22 43 20 78 -5z m834 -27 c0 -23 3 -42 6 -42 4 0 10 -60
14 -133 8 -148 -2 -191 -49 -223 -45 -29 -282 -85 -389 -91 l-98 -6 -52 55
c-47 50 -171 260 -136 231 23 -19 164 -63 201 -63 25 0 29 3 18 10 -8 5 -27
10 -42 10 -60 0 -208 75 -208 105 0 16 27 28 32 14 2 -5 14 -11 28 -14 40 -7
233 -28 255 -28 79 -1 180 43 194 85 10 28 32 34 92 29 8 -1 21 10 29 24 7 14
19 25 25 25 6 0 21 14 34 31 29 39 46 32 46 -19z m403 13 c1 -21 -1 -23 -12
-13 -7 7 -11 19 -9 25 8 21 18 15 21 -12z m-1550 -12 c-16 -2 -40 -2 -55 0
-16 2 -3 4 27 4 30 0 43 -2 28 -4z m2419 -13 c3 -11 12 -20 19 -20 15 0 19
-26 5 -34 -5 -3 -8 -17 -8 -31 0 -23 3 -25 44 -25 30 0 45 -5 50 -16 10 -27
-10 -35 -64 -24 -47 10 -53 9 -117 -23 -36 -19 -69 -30 -72 -25 -8 13 12 34
53 53 35 17 35 18 29 63 -3 25 -11 51 -16 56 -16 16 -12 26 13 36 37 15 59 11
64 -10z m-857 -41 c0 -5 -4 -9 -10 -9 -5 0 -10 7 -10 16 0 8 5 12 10 9 6 -3
10 -10 10 -16z m-353 -121 c-2 -24 -4 -7 -4 37 0 44 2 63 4 43 2 -21 2 -57 0
-80z m-2927 51 c26 -50 20 -72 -17 -67 -23 2 -29 8 -31 36 -2 17 -9 32 -15 32
-9 0 30 39 40 40 2 0 12 -18 23 -41z m3866 -5 c38 -20 70 -37 71 -38 1 0 4
-13 8 -29 6 -22 4 -26 -8 -21 -21 8 -79 -12 -111 -37 -20 -16 -26 -17 -26 -6
0 8 7 17 15 21 27 10 16 26 -18 26 -23 0 -40 8 -55 25 -22 25 -22 27 -6 60 21
45 42 45 130 -1z m-3553 14 c12 -7 24 -14 25 -15 2 -1 -1 -9 -6 -19 -9 -16
-11 -15 -21 4 -17 32 -31 27 -31 -12 0 -19 -4 -38 -10 -41 -5 -3 -10 -14 -10
-24 0 -24 -46 -56 -56 -39 -5 8 -10 7 -18 -4 -13 -17 -64 -29 -72 -17 -3 5
-14 9 -25 9 -10 0 -19 5 -19 11 0 5 -5 7 -10 4 -6 -4 -8 -10 -5 -15 5 -9 -18
-20 -41 -20 -24 0 -17 58 11 86 14 14 25 30 25 36 0 16 41 58 55 58 21 0 45
-36 43 -63 -1 -14 -6 -25 -11 -24 -5 1 -12 -4 -15 -12 -2 -8 0 -11 5 -8 5 3
15 2 22 -3 10 -5 22 1 39 22 14 16 31 27 38 24 9 -3 14 2 14 14 0 20 27 58 43
59 4 1 17 -5 30 -11z m1736 -9 c10 -11 57 -87 102 -167 46 -81 102 -169 126
-196 24 -26 43 -52 43 -57 0 -5 -27 -9 -59 -9 -72 0 -103 -11 -149 -51 -33
-29 -39 -31 -94 -26 -48 4 -66 11 -91 34 -60 55 -65 57 -85 41 -23 -20 -52
-30 -52 -18 0 5 20 32 45 60 25 28 45 61 45 73 0 12 7 42 16 66 11 33 13 64 8
125 -5 68 -4 84 10 95 9 7 13 17 10 22 -3 5 2 6 10 3 9 -3 16 -1 16 4 0 9 16
14 67 21 7 0 21 -8 32 -20z m-1516 -91 c4 -10 7 -10 18 0 18 17 26 15 32 -8 3
-11 12 -20 21 -20 18 0 21 -15 6 -25 -21 -13 -8 -32 35 -49 25 -11 45 -25 45
-33 0 -7 6 -16 13 -19 20 -7 16 -34 -5 -34 -10 0 -18 5 -18 11 0 8 -4 8 -15
-1 -11 -9 -20 -8 -44 9 -34 24 -51 27 -51 7 0 -7 13 -19 30 -26 43 -18 55 -36
43 -63 -6 -12 -16 -41 -22 -65 -10 -35 -15 -42 -31 -37 -23 7 -60 -22 -60 -48
0 -15 -14 -52 -25 -65 -2 -2 -12 1 -23 7 -19 10 -19 12 -2 63 12 37 14 54 6
56 -6 1 -17 24 -23 50 -9 39 -8 52 5 74 18 32 15 37 -21 40 -15 1 -27 8 -27
15 0 13 4 14 50 17 31 1 34 10 16 39 -7 12 -16 34 -20 49 -5 21 -2 28 14 33
11 3 20 13 20 21 0 17 27 19 33 2z m1283 -47 c-4 -6 -12 -11 -17 -11 -6 0 -7
5 -3 11 4 8 0 9 -15 4 -28 -9 -27 3 2 14 24 10 43 -1 33 -18z m2399 -54 c6 -5
3 -7 -7 -3 -12 4 -18 0 -19 -12 0 -14 -2 -14 -9 3 -5 11 -9 28 -9 38 -1 18 0
18 16 0 10 -10 22 -22 28 -26z m-4161 -1 c-28 -21 -54 -27 -47 -10 5 13 54 35
62 28 3 -3 -4 -11 -15 -18z m79 -3 c8 -16 17 -52 19 -80 l5 -53 -41 31 c-23
16 -41 35 -41 42 0 7 -8 12 -17 12 -26 0 -23 14 8 45 37 36 50 36 67 3z m1577
22 c0 -3 -9 -9 -19 -14 -14 -8 -22 -7 -30 3 -9 10 -5 13 19 14 17 0 30 -1 30
-3z m-65 -24 c3 -6 -3 -15 -14 -20 -27 -15 -30 -14 -24 9 6 21 28 27 38 11z
m155 -84 c-10 -47 -25 -97 -32 -109 -7 -13 -12 -27 -13 -32 0 -21 -56 -47
-128 -61 -69 -13 -342 -21 -294 -8 9 2 17 13 17 24 0 39 80 104 170 138 162
62 205 81 250 111 24 16 45 28 47 27 1 -2 -7 -42 -17 -90z m-1320 73 c0 -5 -4
-10 -10 -10 -5 0 -10 5 -10 10 0 6 5 10 10 10 6 0 10 -4 10 -10z m3420 0 c0
-5 -2 -10 -4 -10 -3 0 -8 5 -11 10 -3 6 -1 10 4 10 6 0 11 -4 11 -10z m187
-30 c2 0 3 -12 3 -26 0 -18 -4 -25 -14 -21 -8 3 -17 -1 -20 -9 -10 -25 -37
-15 -52 21 -7 19 -14 36 -14 39 0 10 36 12 65 4 16 -4 31 -8 32 -8z m-2724
-12 c32 -18 137 -19 144 -2 5 13 36 14 48 2 10 -10 -56 -54 -140 -94 -44 -20
-83 -39 -87 -40 -12 -7 -49 69 -46 95 2 15 13 31 28 38 31 16 27 15 53 1z
m2417 -90 c-12 -38 -48 -84 -57 -75 -3 4 0 14 8 24 13 15 12 16 -6 9 -17 -6
-16 -3 6 21 15 15 32 39 39 53 18 33 25 10 10 -32z m43 37 c-3 -9 -8 -14 -10
-11 -3 3 -2 9 2 15 9 16 15 13 8 -4z m-3373 -5 c0 -5 -9 -18 -21 -29 -12 -11
-18 -25 -14 -32 5 -6 8 -24 7 -40 0 -15 6 -33 14 -40 20 -16 17 -37 -6 -44
-30 -10 -58 12 -71 55 -11 37 -10 42 9 63 12 13 22 30 22 38 0 8 5 20 12 27
14 14 48 16 48 2z m2400 -24 c8 -15 10 -38 6 -63 -4 -21 -7 -49 -7 -63 -1 -42
-36 -53 -68 -21 -11 11 -39 22 -63 24 -24 3 -77 11 -118 17 -41 6 -95 13 -119
16 -24 2 -51 8 -60 13 -18 11 -22 10 144 41 61 11 139 28 175 39 87 25 95 25
110 -3z m1170 0 c0 -3 -4 -8 -10 -11 -5 -3 -10 -1 -10 4 0 6 5 11 10 11 6 0
10 -2 10 -4z m-234 -80 c-3 -14 -2 -28 4 -31 12 -7 13 -25 2 -25 -5 0 -16 6
-27 14 -18 13 -18 14 1 39 24 33 28 33 20 3z m-2829 -13 c-3 -15 2 -27 12 -33
22 -12 7 -24 -21 -17 -32 9 -53 43 -36 61 21 23 50 16 45 -11z m2643 -5 c0
-35 -23 -88 -38 -88 -7 0 -10 5 -6 11 3 6 1 15 -5 19 -9 5 -6 17 9 43 25 42
40 47 40 15z m2095 -10 c32 -14 34 -48 3 -48 -17 0 -19 -3 -10 -9 10 -6 8 -10
-10 -13 -22 -4 -24 -1 -21 21 4 21 2 23 -6 9 -7 -10 -19 -14 -31 -11 -11 3
-27 0 -35 -7 -13 -11 -20 -11 -40 0 -23 12 -23 13 -5 32 32 34 108 47 155 26z
m-2216 -52 c7 -8 10 -24 6 -36 -15 -47 -77 -43 -89 6 -6 22 -3 31 15 45 24 18
44 14 68 -15z m-1102 -5 c34 -13 83 -20 165 -23 86 -3 122 -8 135 -20 10 -8
26 -18 36 -21 9 -4 17 -11 17 -17 0 -5 6 -10 14 -10 20 0 34 -49 25 -84 -5
-17 -6 -32 -4 -35 3 -2 -3 -10 -13 -18 -11 -10 -12 -12 -2 -8 10 4 9 2 -2 -8
-10 -8 -18 -24 -18 -35 0 -23 -15 -38 -24 -23 -4 5 -1 13 5 17 8 4 7 9 -2 15
-10 6 -11 9 -1 9 16 0 15 16 -3 38 -9 9 -26 30 -39 46 -14 18 -34 31 -52 33
-58 6 -89 2 -97 -14 -6 -10 -12 -12 -16 -5 -4 6 -24 13 -46 16 -22 2 -41 5
-42 7 -2 1 -7 3 -13 4 -5 1 -13 4 -17 5 -5 1 -15 2 -24 1 -8 -1 -21 10 -27 24
-7 16 -17 23 -24 19 -8 -5 -9 0 -4 17 5 13 10 39 13 57 3 17 7 32 9 32 2 0 25
-8 51 -19z m-1110 3 c-3 -3 -12 -4 -19 -1 -8 3 -5 6 6 6 11 1 17 -2 13 -5z
m328 -30 c-22 -9 -57 -15 -77 -15 -21 0 -38 -4 -38 -9 0 -5 -10 -7 -22 -4 -13
2 -41 7 -63 10 -62 8 -54 14 21 15 38 1 96 5 129 9 89 11 94 10 50 -6z m3925
-16 c19 -8 41 -22 49 -31 7 -10 20 -17 27 -17 13 0 19 -23 16 -62 -1 -10 5
-18 13 -18 47 0 -10 -37 -95 -61 -25 -7 -47 -16 -50 -19 -3 -3 -24 -12 -48
-20 -24 -7 -45 -17 -48 -22 -6 -10 59 2 66 13 3 4 22 10 43 14 20 4 37 12 37
17 0 5 9 6 20 3 11 -3 20 -2 20 3 0 5 8 12 18 15 9 2 25 8 35 12 11 5 17 3 17
-7 0 -7 -27 -24 -62 -37 -35 -12 -71 -27 -81 -32 -10 -5 -22 -7 -27 -4 -6 4
-10 1 -10 -4 0 -6 -7 -11 -15 -11 -9 0 -55 -18 -103 -41 -48 -22 -99 -43 -114
-46 -16 -3 -28 -9 -28 -14 0 -5 -4 -9 -10 -9 -21 0 -9 19 20 32 17 7 30 16 30
20 0 5 9 8 20 8 11 0 20 5 20 10 0 6 9 10 20 10 11 0 20 5 20 10 0 6 -15 4
-36 -5 -45 -19 -64 -19 -64 -1 0 15 21 26 51 26 10 0 19 5 19 10 0 6 7 10 15
10 8 0 30 9 50 20 20 11 42 20 50 20 8 0 15 5 15 11 0 5 -3 8 -7 6 -32 -16
-106 -47 -147 -61 -44 -15 -50 -15 -66 -1 -18 17 -51 20 -65 6 -6 -5 -20 -12
-32 -15 -20 -7 -22 -4 -17 31 l5 38 -23 -47 c-20 -39 -26 -45 -41 -37 -11 7
-17 7 -17 -1 0 -5 -7 -10 -16 -10 -8 0 -12 5 -9 10 4 6 -5 10 -20 10 -20 0
-26 -4 -21 -15 4 -10 -1 -15 -15 -15 -37 0 -34 31 11 118 23 46 49 86 57 89 8
3 29 -1 46 -9 37 -17 67 -12 99 17 38 33 143 89 183 98 42 9 161 0 195 -15z
m-4612 -33 c-12 -27 -28 -34 -28 -12 0 14 20 37 32 37 4 0 2 -11 -4 -25z
m-338 -10 c0 -8 -4 -15 -9 -15 -13 0 -22 16 -14 24 11 11 23 6 23 -9z m351
-12 c-8 -15 -10 -15 -11 -2 0 17 10 32 18 25 2 -3 -1 -13 -7 -23z m124 -10
c-5 -12 -9 -14 -12 -5 -3 6 -11 12 -19 12 -20 0 -17 18 4 23 24 5 36 -8 27
-30z m2425 7 c-6 -10 -9 -44 -8 -74 1 -30 0 -57 -2 -58 -3 -2 -22 -16 -43 -32
-39 -29 -59 -28 -41 2 6 9 20 17 30 17 15 0 19 6 17 30 -3 42 -24 79 -35 63
-6 -8 -8 -2 -6 17 2 20 8 30 20 30 10 0 23 6 30 13 6 6 20 12 30 12 15 0 17
-3 8 -20z m70 -5 c5 -14 14 -25 20 -25 17 0 11 -29 -9 -40 -38 -20 -54 -13
-47 20 3 17 1 30 -4 30 -6 0 -10 9 -10 20 0 30 38 26 50 -5z m-2520 -75 l24
-6 -24 -22 c-30 -27 -36 -27 -51 -1 -8 17 -8 27 2 46 12 22 14 23 20 6 3 -9
16 -20 29 -23z m2308 17 c2 -12 -1 -15 -12 -11 -19 7 -22 38 -3 32 6 -3 13
-12 15 -21z m-2454 -23 c4 -14 18 -29 31 -34 23 -9 36 -22 18 -18 -5 1 -21 -2
-37 -7 -19 -5 -39 -3 -62 8 -44 22 -43 34 3 29 30 -4 35 -2 30 12 -4 9 -10 23
-13 31 -4 11 -2 13 9 9 8 -3 18 -17 21 -30z m2490 10 c33 -13 4 -64 -35 -64
-24 0 -25 27 -2 52 18 21 16 20 37 12z m2316 -39 c0 -2 -7 -5 -15 -9 -9 -3
-15 0 -15 9 0 9 6 12 15 9 8 -4 15 -7 15 -9z m-2439 -47 c15 -28 5 -21 -21 15
-15 20 -17 27 -6 18 9 -8 22 -23 27 -33z m2448 9 c-2 -1 -12 -9 -21 -16 -15
-12 -18 -11 -18 3 0 10 8 16 22 16 12 0 19 -1 17 -3z m-4769 -22 c0 -8 -4 -15
-10 -15 -5 0 -7 7 -4 15 4 8 8 15 10 15 2 0 4 -7 4 -15z m88 -7 c28 -8 33 -13
31 -36 -2 -15 3 -38 10 -51 l13 -24 17 21 c10 14 26 21 46 20 33 -1 75 17 75
32 0 5 -12 17 -26 26 -19 13 -22 19 -12 25 23 15 32 9 62 -37 20 -33 25 -49
18 -56 -15 -15 4 -49 23 -42 9 4 15 0 15 -9 0 -8 7 -18 16 -21 10 -4 14 -14
11 -26 -3 -12 1 -24 11 -30 15 -8 15 -11 2 -20 -13 -8 -12 -11 6 -16 25 -7 51
-73 39 -101 -6 -15 -9 -14 -18 12 -13 38 -16 42 -26 27 -6 -10 -15 -9 -44 3
-40 17 -52 41 -15 29 20 -6 21 -5 9 10 -18 22 -6 33 16 15 9 -8 6 0 -7 19
l-25 33 -15 -36 c-8 -20 -19 -33 -23 -29 -13 13 -7 57 10 76 9 10 13 21 9 25
-3 4 -13 -3 -22 -15 -11 -17 -21 -20 -44 -15 -22 4 -30 2 -30 -8 0 -12 -2 -12
-9 -1 -4 8 -10 13 -12 13 -14 -5 -69 24 -66 33 3 7 -5 13 -16 13 -11 1 -32 14
-46 28 -22 22 -24 28 -13 45 10 17 10 21 -3 26 -8 3 -12 10 -9 16 3 5 -2 19
-13 30 -18 21 -18 21 2 14 11 -5 35 -12 53 -18z m4632 12 c0 -5 -13 -16 -30
-25 -35 -18 -41 -4 -8 19 26 18 38 20 38 6z m-2465 -30 c16 -16 34 -30 41 -30
6 0 17 -7 24 -15 7 -8 17 -12 23 -8 6 3 7 1 3 -5 -5 -8 -21 -10 -47 -6 -27 5
-39 3 -39 -5 0 -7 -5 -9 -11 -6 -6 5 -4 11 6 19 16 11 14 15 -14 43 -17 17
-31 34 -31 37 0 14 18 4 45 -24z m2395 6 c0 -8 -17 -20 -37 -26 -21 -7 -63
-24 -93 -37 -30 -14 -59 -26 -65 -28 -5 -1 -21 -7 -35 -13 -67 -28 -85 -35
-90 -36 -3 -1 -9 -4 -15 -7 -5 -4 -26 -10 -45 -13 l-35 -7 35 17 c43 21 201
95 252 118 20 9 43 16 51 16 9 0 18 4 22 10 3 5 12 7 19 4 8 -3 17 -1 21 5 9
15 15 14 15 -3z m72 -28 c-7 -7 -12 -8 -12 -2 0 14 12 26 19 19 2 -3 -1 -11
-7 -17z m-512 -4 c0 -8 -4 -12 -10 -9 -5 3 -10 10 -10 16 0 5 5 9 10 9 6 0 10
-7 10 -16z m-2415 -13 c-1 -8 -8 -17 -16 -19 -11 -3 -11 -1 1 7 10 7 11 11 3
11 -7 0 -13 4 -13 8 0 5 6 9 14 9 7 0 13 -7 11 -16z m2864 -12 c-9 -5 -15 -4
-18 2 -2 6 3 15 10 20 9 5 15 4 18 -2 2 -6 -3 -15 -10 -20z m41 21 c0 -5 -5
-10 -11 -10 -5 0 -7 5 -4 10 3 6 8 10 11 10 2 0 4 -4 4 -10z m-510 -9 c0 -5
-7 -11 -14 -14 -10 -4 -13 -1 -9 9 6 15 23 19 23 5z m437 -16 c-4 -8 -14 -15
-24 -15 -10 0 -31 -7 -47 -15 -15 -8 -33 -15 -38 -15 -5 0 -30 -10 -56 -22
-26 -11 -53 -21 -59 -21 -7 0 -13 -4 -13 -9 0 -4 -10 -8 -23 -8 -13 0 -28 -5
-35 -12 -8 -8 -12 -8 -12 -1 0 11 66 46 88 46 6 0 12 4 12 7 0 4 13 10 29 13
16 3 35 12 42 19 14 13 131 58 138 52 2 -2 1 -10 -2 -19z m-417 -25 c0 -5 -2
-10 -4 -10 -3 0 -8 5 -11 10 -3 6 -1 10 4 10 6 0 11 -4 11 -10z m-2856 -22
c-10 -12 -13 -18 -6 -14 10 6 13 3 10 -10 -2 -11 -10 -18 -17 -16 -7 1 -10 -2
-6 -8 5 -8 11 -7 21 1 8 6 14 8 14 4 0 -4 7 -2 15 5 8 7 15 10 15 6 0 -3 1 -9
3 -13 1 -3 -5 -7 -13 -9 -47 -7 -73 -14 -78 -18 -3 -3 -12 0 -20 7 -13 9 -14
9 -8 0 5 -10 -3 -13 -31 -15 -64 -3 -118 3 -128 14 -7 8 -5 8 5 3 8 -5 11 -4
7 0 -10 12 -38 15 -32 4 4 -5 -1 -6 -9 -3 -52 20 41 59 165 70 35 2 65 7 68 9
2 3 13 5 24 5 20 0 20 0 1 -22z m3286 18 c0 -2 -23 -16 -50 -30 -38 -20 -55
-24 -68 -17 -15 9 -15 10 4 11 11 0 24 4 30 9 5 5 25 14 44 19 19 6 36 11 38
11 1 1 2 -1 2 -3z m-2274 -32 c-4 -9 -9 -15 -11 -12 -3 3 -3 13 1 22 4 9 9 15
11 12 3 -3 3 -13 -1 -22z m-986 1 c0 -8 -2 -15 -4 -15 -2 0 -6 7 -10 15 -3 8
-1 15 4 15 6 0 10 -7 10 -15z m130 -11 c0 -8 -9 -14 -19 -14 -17 0 -20 12 -12
37 3 9 31 -12 31 -23z m898 -11 c2 -15 8 -19 23 -16 10 3 19 1 19 -5 0 -5 10
-13 23 -16 l22 -7 -23 -9 c-13 -6 -20 -14 -17 -20 4 -6 11 -8 16 -5 5 4 9 1 9
-5 0 -6 -8 -10 -17 -8 -11 2 -18 13 -18 27 0 14 -6 26 -14 29 -10 3 -11 -2 -6
-18 l7 -23 -22 21 c-13 12 -24 35 -25 52 -2 34 18 37 23 3z m1827 17 c3 -6 -1
-7 -9 -4 -18 7 -21 14 -7 14 6 0 13 -4 16 -10z m245 -29 c0 -11 -63 -41 -87
-41 -13 0 -10 4 11 15 15 8 35 15 42 15 8 0 14 5 14 10 0 6 5 10 10 10 6 0 10
-4 10 -9z m399 -17 c9 -3 12 -15 9 -34 -3 -17 -1 -30 4 -30 5 0 6 -4 3 -10 -3
-5 -1 -19 5 -30 9 -16 8 -20 -6 -20 -9 0 -14 -6 -11 -13 3 -8 -3 -14 -14 -14
-10 -1 -19 4 -20 10 -1 21 -18 -27 -18 -54 -1 -31 -26 -55 -53 -51 -11 2 -18
-3 -18 -12 0 -9 -7 -16 -16 -16 -9 0 -12 -5 -8 -12 5 -7 3 -8 -5 -3 -7 4 -22
-1 -34 -13 -16 -14 -33 -19 -62 -17 -48 3 -72 9 -81 18 -14 14 -64 7 -64 -8 0
-23 -19 -18 -30 8 l-9 22 0 -24 c-1 -23 -2 -23 -19 -8 -10 10 -25 17 -34 17
-8 0 -23 9 -33 20 -17 19 -19 19 -47 2 l-30 -17 32 -5 c26 -4 34 -12 45 -43 7
-21 9 -40 4 -43 -5 -3 -9 -10 -9 -16 0 -7 6 -6 15 2 15 13 20 3 7 -15 -11 -15
-32 -17 -47 -5 -10 8 -19 8 -35 0 -25 -13 -38 -6 -52 28 -14 35 -11 53 13 70
24 16 26 54 3 45 -13 -5 -13 -8 -2 -15 9 -7 8 -8 -5 -4 -11 3 -31 9 -45 12
-26 5 -27 5 -7 -11 19 -16 18 -16 -20 -10 -22 4 -51 14 -64 22 -21 14 -23 20
-18 64 6 50 48 119 72 119 24 0 131 -41 157 -60 l28 -20 38 38 c47 47 82 57
277 78 36 4 58 14 80 34 43 39 63 43 124 24z m-402 -30 c-3 -3 -12 -4 -19 -1
-8 3 -5 6 6 6 11 1 17 -2 13 -5z m-47 -8 c0 -3 -4 -8 -10 -11 -5 -3 -10 -1
-10 4 0 6 5 11 10 11 6 0 10 -2 10 -4z m40 -36 c0 -5 -4 -10 -10 -10 -5 0 -10
5 -10 10 0 6 5 10 10 10 6 0 10 -4 10 -10z m-1945 -31 c-7 -11 -35 -12 -35 -1
0 4 9 8 20 9 11 1 18 -2 15 -8z m43 -24 c-3 -3 -9 2 -12 12 -6 14 -5 15 5 6 7
-7 10 -15 7 -18z m-75 -2 c15 -17 12 -18 -43 -18 -32 0 -62 4 -67 9 -4 5 3 7
18 4 14 -2 31 1 37 9 17 18 36 16 55 -4z m1419 -39 c7 -5 16 -9 21 -10 4 -1 9
-2 12 -3 2 0 0 -13 -5 -27 -7 -19 -6 -29 3 -39 19 -19 51 -22 70 -7 13 11 19
9 37 -10 19 -21 21 -21 15 -3 -4 16 -3 15 6 -2 7 -13 16 -23 21 -23 4 0 8 -7
8 -15 0 -8 5 -15 12 -15 17 0 1 -13 -20 -17 -10 -1 -22 7 -27 20 -18 40 -82
35 -105 -8 -7 -14 -19 -25 -27 -25 -17 0 -17 -16 1 -23 9 -4 12 -14 9 -26 -3
-12 -1 -21 6 -21 6 0 11 -7 11 -16 0 -9 9 -18 20 -21 11 -3 17 -9 14 -14 -3
-5 6 -9 20 -9 20 0 24 -4 20 -17 -5 -17 -5 -17 6 0 6 9 18 17 25 17 8 0 15 -8
15 -17 0 -12 7 -7 20 15 11 18 25 30 30 27 15 -9 12 -28 -4 -22 -10 4 -12 0
-9 -14 3 -10 0 -19 -6 -19 -6 0 -11 -6 -11 -13 0 -8 -11 -19 -24 -26 -13 -7
-34 -30 -47 -51 -16 -25 -37 -42 -64 -51 -37 -13 -40 -17 -46 -59 -4 -28 -2
-48 5 -52 16 -10 -1 -22 -50 -36 -27 -8 -44 -20 -52 -37 -10 -21 -9 -25 4 -25
8 0 12 -5 8 -11 -3 -6 -24 -9 -45 -7 -22 2 -39 -1 -39 -7 -1 -5 -9 0 -20 13
-10 13 -21 23 -24 22 -21 -1 -26 2 -26 18 0 10 11 29 25 42 14 13 25 29 25 37
0 7 5 13 10 13 6 0 10 7 10 16 0 8 -4 12 -10 9 -5 -3 -10 3 -10 14 0 11 -5 23
-12 27 -6 4 -8 3 -5 -3 9 -14 -43 -24 -65 -12 -9 5 -26 9 -38 9 -13 0 -24 8
-27 20 -3 11 -9 20 -14 20 -12 0 -11 37 1 61 13 23 31 24 73 2 18 -9 36 -16
41 -15 4 2 14 -2 21 -8 10 -9 18 -7 32 7 11 11 17 25 15 31 -2 7 4 12 14 12
14 0 15 3 6 12 -8 8 -15 8 -27 -2 -8 -7 -19 -9 -23 -5 -4 4 -1 10 6 12 14 5
17 33 3 33 -5 0 -12 -6 -14 -12 -4 -8 -6 -7 -6 3 -1 9 -7 22 -15 29 -8 6 -12
18 -9 26 3 8 -1 14 -11 14 -10 0 -16 9 -17 23 0 12 -3 17 -5 11 -10 -24 -42
-2 -53 37 -7 22 -19 43 -27 46 -22 8 -17 55 11 92 22 30 85 79 85 65 0 -3 8 0
18 6 19 12 202 7 224 -6z m-1392 -4 c0 -5 -5 -10 -11 -10 -5 0 -7 5 -4 10 3 6
8 10 11 10 2 0 4 -4 4 -10z m-24 -32 c5 -7 3 -8 -6 -3 -7 4 -16 2 -21 -6 -4
-7 -11 -10 -16 -6 -4 5 -1 12 7 17 20 13 27 12 36 -2z m101 -24 c-9 -9 -28 6
-21 18 4 6 10 6 17 -1 6 -6 8 -13 4 -17z m-3884 -9 c15 -1 30 -5 34 -8 3 -4
12 -2 20 5 7 6 14 9 16 7 1 -2 11 -22 22 -43 11 -22 26 -45 33 -53 7 -7 17
-26 22 -42 8 -29 7 -30 -46 -47 -45 -14 -61 -15 -101 -4 -26 6 -88 14 -138 18
-56 4 -79 8 -61 12 36 6 39 21 9 35 -13 5 -23 18 -23 29 0 15 3 16 15 6 13
-10 15 -9 15 8 0 15 5 20 15 16 8 -4 17 1 21 10 8 21 61 46 81 39 13 -5 15 -2
10 11 -6 15 -4 17 10 11 10 -4 30 -8 46 -10z m3737 -6 c0 -5 -4 -9 -10 -9 -5
0 -10 7 -10 16 0 8 5 12 10 9 6 -3 10 -10 10 -16z m29 -41 c1 -5 -6 -8 -14 -8
-16 0 -19 9 -8 36 6 16 7 16 14 -2 4 -10 8 -22 8 -26z m180 3 c-3 -8 -10 -8
-23 2 -12 8 -16 19 -11 26 6 10 11 10 22 -2 9 -8 14 -20 12 -26z m-1369 -31
c0 -5 -2 -10 -4 -10 -3 0 -8 5 -11 10 -3 6 -1 10 4 10 6 0 11 -4 11 -10z
m1344 -12 c5 -10 7 -10 12 0 3 6 10 12 16 12 7 0 7 -5 -1 -13 -6 -8 -8 -17 -4
-20 10 -11 -16 -8 -38 3 -10 6 -19 15 -19 20 0 14 27 12 34 -2z m-164 -38 c0
-5 -2 -10 -4 -10 -3 0 -8 5 -11 10 -3 6 -1 10 4 10 6 0 11 -4 11 -10z m1670
-26 c0 -1 -9 0 -20 3 -11 3 -20 12 -20 19 0 11 5 10 20 -3 11 -10 20 -18 20
-19z m-1650 -16 c0 -13 -23 -5 -28 10 -2 7 2 10 12 6 9 -3 16 -11 16 -16z m44
-27 c3 -5 -6 -11 -21 -14 -26 -5 -26 -4 -8 9 22 17 22 17 29 5z m111 -11 c5 8
11 8 22 -1 12 -11 12 -14 -1 -21 -20 -11 -33 -4 -46 25 -10 20 -10 21 3 4 10
-12 17 -15 22 -7z m1515 0 c0 -5 -4 -10 -10 -10 -5 0 -10 5 -10 10 0 6 5 10
10 10 6 0 10 -4 10 -10z m-5595 -67 c11 -2 42 -5 68 -7 27 -2 54 -9 60 -15 6
-6 21 -11 33 -11 13 0 25 -4 28 -9 9 -14 -15 -28 -62 -35 -47 -7 -118 21 -129
51 -6 14 -7 14 -18 -1 -10 -14 -14 -14 -24 -2 -14 17 -4 49 13 39 6 -5 20 -9
31 -10z m4270 -29 c19 -19 12 -32 -9 -15 -8 7 -26 9 -43 6 -27 -6 -27 -6 -9 9
25 20 40 20 61 0z m-327 -21 c-10 -2 -28 -2 -40 0 -13 2 -5 4 17 4 22 1 32 -1
23 -4z m2045 -36 c3 -8 -1 -14 -8 -14 -7 0 -11 6 -8 14 3 7 6 13 8 13 2 0 5
-6 8 -13z m-1713 -9 c0 -10 2 -10 8 -1 6 10 12 10 28 -2 15 -11 16 -15 4 -16
-8 0 -26 -2 -40 -5 -28 -4 -59 11 -46 23 5 4 11 2 13 -4 3 -7 9 -13 14 -13 4
0 6 7 3 15 -4 8 -1 15 5 15 6 0 11 -6 11 -12z m1779 -13 c2 -13 -1 -16 -13
-12 -8 3 -22 0 -30 -8 -13 -14 -26 -10 -26 7 0 5 4 7 9 4 4 -3 17 2 27 10 10
9 13 12 5 8 -10 -5 -12 -3 -7 5 11 16 30 8 35 -14z m-1221 -11 c25 -7 27 -21
11 -76 -12 -47 -30 -50 -22 -4 3 19 1 36 -6 40 -10 7 -13 -5 -15 -83 -2 -40
-20 -33 -43 17 -33 72 -34 78 -8 90 16 7 26 7 34 -1 8 -8 11 -7 11 6 0 19 4
20 38 11z m-4678 -11 c0 -5 -5 -15 -10 -23 -7 -12 -12 -12 -22 -2 -10 10 -10
15 2 22 18 12 30 13 30 3z m4174 -35 c-3 -4 -12 -8 -20 -8 -12 0 -12 4 -2 20
8 13 15 16 19 8 4 -7 5 -16 3 -20z m223 -34 c-4 -61 -23 -83 -54 -65 -16 9
-16 10 5 18 l23 9 -20 18 c-12 11 -21 24 -21 30 0 11 47 45 63 46 5 0 6 -25 4
-56z m66 28 c-2 -6 -4 -39 -4 -73 -2 -58 -3 -60 -25 -55 -18 5 -22 3 -17 -9 3
-9 -2 -21 -12 -29 -14 -10 -15 -15 -5 -21 9 -5 11 -4 6 3 -4 7 -2 12 3 12 13
0 15 -17 4 -23 -5 -2 -22 2 -40 9 -22 10 -31 19 -27 29 4 8 1 21 -5 29 -9 11
-6 12 13 9 16 -3 23 -10 19 -19 -3 -8 0 -14 6 -14 17 0 37 61 35 110 -1 25 0
49 3 53 8 13 48 3 46 -11z m107 -17 c0 -8 9 -34 19 -58 17 -40 18 -46 4 -51
-19 -8 -67 37 -61 56 3 7 2 25 -3 39 -9 32 8 54 28 38 7 -7 13 -17 13 -24z
m-480 21 c0 -11 -19 -15 -25 -6 -3 5 1 10 9 10 9 0 16 -2 16 -4z m78 -18 c17
-5 32 -14 32 -20 0 -6 8 -17 18 -24 16 -13 16 -13 -1 -14 -9 0 -27 11 -39 25
-12 14 -32 25 -44 25 -12 0 -25 7 -28 16 -5 12 -2 15 11 9 10 -4 33 -11 51
-17z m347 -36 c3 -26 10 -55 16 -64 13 -25 12 -28 -15 -28 -18 0 -27 8 -35 31
-14 42 -14 92 1 107 18 18 26 6 33 -46z m-4685 -2 c0 -12 -28 -25 -36 -17 -9
9 6 27 22 27 8 0 14 -5 14 -10z m4097 -4 c-17 -13 -17 -15 5 -30 12 -9 18 -16
13 -16 -6 0 -23 11 -38 24 l-28 25 28 4 c15 2 30 5 33 5 3 1 -3 -5 -13 -12z
m1808 -113 c0 -65 4 -135 8 -156 5 -24 5 -37 -1 -33 -5 3 -7 -7 -5 -22 l4 -27
-30 33 c-17 18 -31 38 -31 44 0 7 6 4 13 -6 16 -22 47 -12 40 15 -3 10 -10 19
-15 19 -5 0 -6 -4 -3 -10 3 -5 1 -10 -5 -10 -14 0 -50 59 -51 85 -1 11 -6 3
-11 -17 -6 -24 -16 -38 -26 -38 -9 0 -26 -10 -39 -22 -13 -12 -29 -23 -36 -24
-99 -18 -94 -18 -100 12 -4 21 2 41 21 71 35 55 55 63 114 48 42 -10 48 -10
62 7 9 10 16 25 16 33 0 7 5 17 11 21 8 4 9 -1 5 -17 -3 -13 -3 -19 0 -12 3 7
13 9 22 6 13 -5 12 0 -5 19 -25 26 -30 48 -11 48 6 0 8 3 5 6 -6 7 30 44 42
44 3 0 6 -53 6 -117z m315 93 c0 -19 -25 -37 -42 -31 -9 4 -18 -1 -22 -10 -4
-10 -2 -14 5 -9 6 3 3 -6 -7 -22 -26 -42 -27 -42 -22 -2 2 20 0 34 -4 32 -11
-7 -10 3 2 25 6 13 17 17 33 14 14 -3 28 0 31 6 10 15 26 14 26 -3z m-1746
-12 c20 -8 11 -24 -15 -24 -10 0 -19 7 -19 15 0 16 9 19 34 9z m-164 -39 c0
-8 -4 -17 -10 -20 -6 -4 -10 5 -10 20 0 15 4 24 10 20 6 -3 10 -12 10 -20z
m95 5 c3 -5 -1 -10 -10 -10 -9 0 -13 5 -10 10 3 6 8 10 10 10 2 0 7 -4 10 -10z
m-45 -12 c0 -11 -28 -10 -35 1 -3 6 4 9 15 8 11 -1 20 -5 20 -9z m138 -19
c-20 -13 -38 -11 -38 5 0 19 22 26 38 13 11 -8 11 -12 0 -18z m872 17 c-20
-19 -65 -32 -55 -16 7 11 41 28 60 29 5 1 3 -5 -5 -13z m-1090 -36 c0 -5 -9
-10 -20 -10 -11 0 -20 5 -20 10 0 6 9 10 20 10 11 0 20 -4 20 -10z m1800 -30
c0 -20 -19 -39 -21 -21 -1 6 -2 17 -3 24 -3 18 4 28 15 22 5 -4 9 -15 9 -25z
m-40 10 c0 -5 -2 -10 -4 -10 -3 0 -8 5 -11 10 -3 6 -1 10 4 10 6 0 11 -4 11
-10z m-1489 -48 c-9 -16 -16 -19 -38 -13 -15 4 -29 14 -31 22 -5 12 -3 12 12
0 15 -12 19 -11 34 7 20 25 38 13 23 -16z m-4611 19 c0 -6 -4 -13 -10 -16 -5
-3 -10 1 -10 9 0 9 5 16 10 16 6 0 10 -4 10 -9z m70 -12 c0 -13 -7 -17 -25
-15 -30 3 -39 11 -31 25 11 17 56 9 56 -10z m4327 -1 c-3 -8 -6 -5 -6 6 -1 11
2 17 5 13 3 -3 4 -12 1 -19z m-27 -2 c0 -3 -4 -8 -10 -11 -5 -3 -10 -1 -10 4
0 6 5 11 10 11 6 0 10 -2 10 -4z m145 -6 c3 -5 -1 -10 -10 -10 -9 0 -13 5 -10
10 3 6 8 10 10 10 2 0 7 -4 10 -10z m1836 -50 c7 -30 18 -82 25 -115 7 -32 12
-60 11 -61 -1 -1 -16 -5 -34 -8 -26 -6 -34 -4 -43 14 -6 11 -9 24 -6 28 3 5
-1 29 -8 53 -15 49 -13 102 3 107 6 2 11 10 11 18 0 9 -5 12 -12 8 -6 -4 -8
-3 -4 4 3 6 15 10 26 9 15 -1 22 -13 31 -57z m-1686 40 c3 -5 -1 -10 -9 -10
-9 0 -16 5 -16 10 0 6 4 10 9 10 6 0 13 -4 16 -10z m-3688 -30 c18 -11 35 -31
39 -45 7 -29 -2 -86 -21 -131 -11 -28 -19 -33 -63 -39 -50 -7 -106 11 -124 39
-11 16 -10 110 2 140 20 53 108 72 167 36z m3197 -15 c-4 -8 -11 -15 -16 -15
-6 0 -5 6 2 15 7 8 14 15 16 15 2 0 1 -7 -2 -15z m206 5 c0 -5 -4 -10 -10 -10
-5 0 -10 5 -10 10 0 6 5 10 10 10 6 0 10 -4 10 -10z m280 -11 c0 -5 -13 -9
-30 -9 -32 0 -41 16 -12 22 21 5 42 -1 42 -13z m-200 -3 c0 -2 -7 -7 -16 -10
-8 -3 -12 -2 -9 4 6 10 25 14 25 6z m1400 -22 c0 -11 -5 -14 -16 -10 -12 5
-14 1 -9 -15 5 -14 0 -28 -16 -45 -30 -32 -49 -31 -49 4 0 20 7 33 25 42 14 7
25 19 25 27 0 7 9 13 20 13 12 0 20 -7 20 -16z m-1230 -14 c0 -5 -2 -10 -4
-10 -3 0 -8 5 -11 10 -3 6 -1 10 4 10 6 0 11 -4 11 -10z m1617 -42 c-2 -13 -4
-5 -4 17 -1 22 1 32 4 23 2 -10 2 -28 0 -40z m-1659 17 c-3 -3 -9 2 -12 12 -6
14 -5 15 5 6 7 -7 10 -15 7 -18z m-4198 -50 c-5 -6 -5 -17 -1 -24 7 -11 12
-10 30 1 18 11 23 11 30 -1 5 -7 14 -10 20 -7 22 14 10 26 -24 26 -23 0 -35 5
-35 13 0 8 6 14 13 14 6 1 31 4 55 7 33 5 42 3 42 -9 0 -8 6 -12 14 -9 11 4
13 0 9 -15 -4 -17 -2 -20 11 -15 12 4 15 2 10 -9 -3 -8 -1 -18 5 -22 16 -9 13
-35 -4 -35 -8 0 -15 -8 -15 -17 0 -12 -3 -14 -8 -6 -4 6 -20 15 -35 18 -16 4
-31 13 -33 20 -5 13 -74 16 -74 3 0 -4 9 -8 20 -8 11 0 20 -5 20 -11 0 -6 6
-9 13 -7 14 6 70 -23 68 -35 0 -4 -1 -14 -1 -23 0 -10 -6 -14 -15 -10 -20 7
-45 -3 -45 -19 0 -20 20 -29 33 -16 17 17 27 13 27 -12 0 -35 -20 -53 -72 -67
-51 -13 -92 -4 -131 28 -13 12 -20 13 -29 4 -17 -17 -48 4 -48 34 0 20 4 24
19 19 14 -4 21 0 26 15 8 26 -3 40 -15 20 -6 -8 -10 -10 -10 -4 0 5 5 15 12
22 9 9 5 12 -17 13 l-30 1 30 7 c17 3 28 10 27 15 -2 5 2 12 8 16 7 4 11 13 8
20 -3 9 -9 8 -21 -5 -24 -23 -31 -14 -16 19 7 15 23 29 38 32 36 7 56 20 53
34 -1 6 2 9 7 6 5 -4 13 -1 17 5 5 8 9 7 15 -2 4 -7 4 -18 -1 -24z m5497 0
c-4 -8 -14 -15 -23 -15 -16 0 -16 2 2 19 21 21 29 19 21 -4z m381 5 c-7 -10
-14 -17 -17 -15 -4 4 18 35 25 35 2 0 -1 -9 -8 -20z m-5486 -15 c6 -27 0 -38
-13 -29 -12 7 -12 54 0 54 5 0 11 -11 13 -25z m3278 5 c0 -5 -4 -10 -10 -10
-5 0 -10 5 -10 10 0 6 5 10 10 10 6 0 10 -4 10 -10z m620 0 c0 -5 -5 -10 -11
-10 -5 0 -7 5 -4 10 3 6 8 10 11 10 2 0 4 -4 4 -10z m1255 -9 c3 -5 1 -12 -5
-16 -5 -3 -10 1 -10 9 0 18 6 21 15 7z m-95 -21 c0 -5 -2 -10 -4 -10 -3 0 -8
5 -11 10 -3 6 -1 10 4 10 6 0 11 -4 11 -10z m-20 -72 c21 -22 26 -38 12 -38
-4 0 -20 -11 -35 -25 -15 -14 -27 -21 -27 -16 0 5 -9 13 -20 16 -24 8 -25 27
-4 60 20 31 47 32 74 3z m-5908 -26 c3 8 14 6 38 -5 25 -13 35 -14 41 -5 6 9
11 9 23 -1 9 -7 27 -11 40 -9 22 5 23 3 14 -23 -8 -23 -20 -31 -63 -44 -66
-19 -59 -19 -116 7 -51 22 -61 39 -46 75 9 21 12 21 38 8 20 -11 29 -11 31 -3z
m6064 -23 c33 -31 47 -70 35 -100 -9 -23 -10 -22 -11 11 0 26 -3 31 -10 19 -5
-9 -5 -32 1 -58 13 -57 1 -70 -62 -69 -62 2 -69 12 -69 110 0 92 17 123 63
114 17 -4 41 -16 53 -27z m-1266 4 c2 -2 -2 -8 -9 -13 -13 -8 -41 9 -41 25 0
6 40 -3 50 -12z m-1427 -3 c60 -6 123 -17 140 -25 25 -12 27 -14 7 -10 -76 17
-269 23 -423 14 -93 -5 -173 -11 -177 -14 -4 -3 -59 -7 -121 -10 -115 -6 -353
-43 -463 -71 -95 -25 -74 -9 26 19 141 40 323 68 648 100 79 8 262 6 363 -3z
m-3583 -44 c0 -3 -4 -8 -10 -11 -5 -3 -10 -1 -10 4 0 6 5 11 10 11 6 0 10 -2
10 -4z m999 -33 c-21 -27 -64 -62 -68 -57 -6 6 61 74 72 74 5 0 3 -8 -4 -17z
m3995 -19 c3 -8 2 -12 -4 -9 -6 3 -10 10 -10 16 0 14 7 11 14 -7z m1362 5 c4
-8 9 -7 16 2 8 11 9 10 5 -2 -3 -9 0 -22 6 -28 6 -6 12 -21 14 -33 3 -22 2
-22 -12 -4 -8 11 -15 23 -15 27 0 4 -8 6 -17 5 -12 0 -19 7 -21 22 -4 23 12
30 24 11z m-5284 -31 c-9 -9 -15 -9 -24 0 -9 9 -7 12 12 12 19 0 21 -3 12 -12z
m-945 -13 c7 -19 5 -22 -30 -30 -21 -6 -27 -4 -27 8 0 15 25 36 43 37 4 0 10
-7 14 -15z m6250 -51 c-3 -3 1 -17 8 -31 17 -32 12 -43 -20 -43 -18 0 -22 4
-18 20 3 11 8 18 12 16 8 -6 7 36 -2 51 -4 5 -3 13 0 17 4 4 11 -1 16 -9 5 -9
7 -19 4 -21z m-6461 -11 c-10 -10 -19 5 -10 18 6 11 8 11 12 0 2 -7 1 -15 -2
-18z m502 10 c-2 -11 -14 -19 -31 -21 -29 -4 -35 6 -15 26 19 19 50 15 46 -5z
m-402 -69 c-2 -31 -6 -58 -8 -60 -9 -8 -78 18 -78 29 0 7 5 29 11 50 9 34 13
37 45 37 l35 0 -5 -56z m649 26 c3 -5 1 -10 -4 -10 -6 0 -11 5 -11 10 0 6 2
10 4 10 3 0 8 -4 11 -10z m5600 0 c-3 -5 -15 -10 -25 -10 -10 0 -22 5 -25 10
-4 6 7 10 25 10 18 0 29 -4 25 -10z m35 -7 c0 -27 -12 -41 -40 -44 -35 -5 -40
26 -6 35 15 4 26 11 26 16 0 6 5 10 10 10 6 0 10 -8 10 -17z m-5640 -29 c0 -8
-4 -12 -10 -9 -5 3 -10 10 -10 16 0 5 5 9 10 9 6 0 10 -7 10 -16z m154 -17 c8
-13 6 -21 -7 -34 -14 -14 -17 -14 -17 -3 0 8 -3 26 -7 39 -7 27 13 26 31 -2z
m-274 -41 c0 -7 -9 -16 -20 -19 -19 -5 -28 12 -13 26 11 12 33 7 33 -7z m80 4
c0 -5 -4 -10 -10 -10 -5 0 -10 5 -10 10 0 6 5 10 10 10 6 0 10 -4 10 -10z
m4270 -30 c0 -5 -9 -10 -20 -10 -11 0 -20 5 -20 10 0 6 9 10 20 10 11 0 20 -4
20 -10z m45 -399 c-3 -6 -11 -11 -16 -11 -5 0 -4 6 3 14 14 16 24 13 13 -3z
m110 9 c-3 -5 -14 -10 -23 -10 -15 0 -15 2 -2 10 20 13 33 13 25 0z m-5 -50
c-8 -5 -17 -7 -19 -4 -3 3 1 9 9 14 8 5 17 7 19 4 3 -3 -1 -9 -9 -14z m10 -40
c-8 -6 -24 -9 -35 -9 l-20 1 20 5 c11 3 24 9 29 14 5 5 12 6 15 3 3 -3 -1 -9
-9 -14z m20 -23 c0 -8 -11 -19 -25 -25 -32 -15 -48 -15 -40 -2 4 6 10 8 14 5
5 -2 17 4 27 15 23 23 24 23 24 7z m8 -46 c-7 -11 -23 -24 -35 -30 -29 -14
-33 -14 -33 -1 0 6 6 10 13 10 8 0 22 9 33 19 25 26 38 26 22 2z m2 -52 c0
-10 -59 -39 -80 -39 -18 0 -11 20 8 20 9 1 28 7 42 15 31 17 30 17 30 4z
m-2313 -46 c-3 -10 -5 -2 -5 17 0 19 2 27 5 18 2 -10 2 -26 0 -35z m-1576 0
c13 -16 12 -17 -3 -4 -10 7 -18 15 -18 17 0 8 8 3 21 -13z m3890 -13 c-13 -11
-31 -20 -40 -21 -9 0 -24 -2 -33 -4 -10 -2 -18 1 -18 5 0 5 16 12 35 16 19 3
38 10 41 15 3 5 13 9 22 9 14 -1 13 -4 -7 -20z m-4068 -59 c5 -1 7 -6 5 -12
-4 -12 -128 -21 -128 -8 0 22 44 29 123 20z m-128 -55 c8 -9 16 -9 35 1 35 18
80 17 80 -2 0 -8 -8 -15 -17 -16 -10 0 -40 -2 -68 -4 -57 -3 -90 7 -98 29 -5
12 0 14 26 9 18 -3 37 -11 42 -17z m1 -47 c6 -5 25 -4 44 1 18 5 40 6 48 1 25
-14 -5 -24 -67 -22 -41 1 -61 7 -76 22 l-20 20 30 -7 c17 -4 35 -11 41 -15z
m9 -48 c3 -5 21 -7 40 -4 24 4 35 2 35 -6 0 -17 -102 -10 -108 7 -4 14 24 17
33 3z m1382 -43 c25 -23 29 -57 13 -122 -9 -41 -23 -55 -48 -52 -8 2 -23 -4
-32 -13 -42 -40 -57 -47 -76 -40 -28 11 -34 10 -31 -3 1 -8 -10 -14 -26 -16
-15 -2 -25 -8 -22 -13 4 -5 -4 -5 -19 1 -20 7 -24 6 -19 -5 5 -15 1 -17 -52
-20 -16 -1 -37 -4 -45 -7 -74 -26 -91 -29 -105 -18 -12 10 -15 9 -15 -4 0 -9
-7 -16 -15 -16 -8 0 -15 -5 -15 -11 0 -6 -9 -8 -21 -4 -18 6 -20 4 -15 -13 4
-11 2 -23 -4 -27 -5 -3 -10 -1 -10 6 0 9 -4 9 -15 -1 -8 -6 -20 -8 -27 -4 -13
8 -52 7 -93 -3 -11 -2 -33 -6 -50 -8 -39 -4 -98 -30 -115 -49 -7 -9 -9 -16 -6
-16 4 0 2 -9 -4 -20 -21 -40 -162 -80 -172 -49 -2 6 -16 12 -31 12 -33 2 -32
2 -6 30 12 12 19 15 15 7 -4 -8 1 -4 12 9 14 18 21 20 24 10 3 -10 8 -8 17 9
12 23 37 32 26 10 -4 -7 7 2 23 20 15 17 35 32 43 32 11 0 11 2 1 9 -10 6 -7
12 13 25 20 13 24 20 15 31 -8 9 -8 15 0 20 6 3 8 10 5 15 -14 22 113 70 186
70 40 0 278 94 424 167 118 60 151 71 204 72 33 1 51 -5 68 -21z m3248 -77
c-8 -26 -26 -58 -39 -70 -21 -20 -24 -20 -30 -6 -7 19 -4 25 35 75 15 19 31
49 36 65 7 27 8 28 11 7 2 -12 -4 -44 -13 -71z m-4565 59 c0 -5 -12 -10 -27
-10 -22 0 -25 2 -13 10 20 13 40 13 40 0z m-11 -61 c-7 -4 -17 -5 -22 -2 -5 3
-3 9 4 14 7 4 17 5 22 2 5 -3 3 -9 -4 -14z m4464 -37 c36 -4 15 -21 -25 -20
-24 0 -107 -3 -185 -7 -105 -6 -143 -5 -143 4 0 6 18 11 43 12 23 0 50 3 60 7
15 6 199 9 250 4z m12 -62 c3 -6 3 -10 -2 -11 -4 0 -17 -2 -28 -5 -38 -8 -239
-6 -220 2 41 17 241 28 250 14z m336 -44 c-59 -61 -272 -155 -259 -115 5 16
75 57 100 58 19 1 137 60 156 79 31 29 33 9 3 -22z m-781 -2 c0 -2 -16 -4 -36
-4 -19 0 -33 4 -30 8 5 8 66 4 66 -4z m457 -17 c-5 -16 -187 -23 -187 -7 0 7
7 10 15 6 8 -3 24 -2 35 2 34 12 142 12 137 -1z m-404 -36 c15 -1 27 -6 27
-12 0 -7 -20 -9 -57 -5 -32 3 -66 5 -76 5 -10 1 -16 5 -13 10 3 5 25 8 49 6
23 -2 54 -4 70 -4z m74 -17 c-3 -3 -12 -4 -19 -1 -8 3 -5 6 6 6 11 1 17 -2 13
-5z m353 -9 c-14 -17 -140 -22 -140 -6 0 10 31 15 108 18 38 2 42 0 32 -12z
m233 -9 c-18 -25 -108 -78 -153 -91 -14 -4 -32 -13 -40 -20 -22 -19 -160 -23
-160 -5 0 6 22 10 49 10 69 0 110 10 105 25 -3 7 15 18 48 29 29 9 78 30 108
46 30 16 56 29 58 30 2 0 -5 -11 -15 -24z m-393 4 c11 -7 3 -10 -30 -9 -34 0
-40 2 -25 9 27 12 37 12 55 0z m-2977 -51 c22 -16 31 -18 42 -9 10 9 16 7 23
-7 17 -31 33 -130 26 -157 -10 -43 -22 -39 -17 7 3 23 -1 56 -8 72 l-12 30 -7
-25 c-18 -65 -21 -68 -57 -68 -27 0 -43 -8 -65 -30 -15 -17 -28 -36 -28 -41 0
-6 -12 -18 -27 -28 -37 -25 -70 -53 -107 -91 -17 -17 -47 -36 -66 -42 -30 -9
-37 -7 -60 14 -43 39 -84 51 -110 30 -8 -6 -28 -14 -43 -18 -15 -4 -25 -11
-22 -17 4 -5 3 -9 -2 -8 -11 3 -45 -11 -63 -26 -31 -25 -193 -54 -204 -36 -10
16 56 93 122 143 46 35 72 48 95 47 80 -1 156 35 179 87 6 13 19 24 29 24 20
0 109 57 109 70 0 15 53 72 85 92 40 26 146 19 188 -13z m2777 12 c26 -7 14
-8 -50 -6 -47 2 -100 3 -117 4 -18 1 -33 6 -33 12 0 13 136 6 200 -10z m385
-11 c6 -10 3 -11 -45 -15 -14 -2 -29 -4 -35 -5 -26 -6 -135 1 -135 9 0 5 32 9
71 9 39 1 73 2 75 4 8 9 63 7 69 -2z m151 -45 c-15 -14 -45 -34 -67 -45 -21
-11 -39 -25 -39 -30 0 -14 5 -13 53 10 l42 21 -37 -34 c-43 -39 -48 -51 -15
-42 20 6 20 6 7 -8 -19 -19 -133 -31 -212 -22 -82 10 -72 22 15 17 92 -4 157
5 157 23 0 19 -17 23 -84 17 -43 -4 -57 -2 -52 6 4 7 18 12 30 12 43 0 88 12
75 21 -9 5 -2 14 22 28 19 12 40 21 46 21 7 0 27 9 45 20 41 25 49 17 14 -15z
m-521 1 c11 -2 31 -4 45 -5 19 -1 22 -3 10 -10 -8 -6 -17 -8 -20 -7 -3 2 -59
7 -125 10 -66 4 -124 12 -130 18 -9 9 153 5 220 -6z m139 -15 c3 -4 -9 -8 -25
-9 -16 -1 -29 2 -29 7 0 10 48 12 54 2z m49 -8 c-7 -2 -19 -2 -25 0 -7 3 -2 5
12 5 14 0 19 -2 13 -5z m-268 -27 c22 -3 43 -5 48 -5 4 -1 7 -5 7 -9 0 -5 -37
-7 -82 -5 -95 4 -128 10 -128 22 0 8 68 6 155 -3z m243 -21 c18 -1 36 -6 40
-10 4 -4 -24 -5 -63 -1 -38 3 -89 6 -112 6 -24 0 -43 5 -43 10 0 7 26 8 73 4
39 -3 87 -7 105 -9z m-3693 -5 c3 -6 -1 -13 -9 -16 -8 -3 -18 -14 -21 -25 -4
-10 -13 -19 -21 -19 -8 0 -17 -7 -20 -15 -4 -8 -10 -12 -15 -9 -6 3 -25 -6
-44 -20 -19 -15 -40 -23 -49 -20 -20 8 -20 9 0 39 9 14 20 22 25 20 4 -3 6 4
4 15 -2 12 3 24 16 30 12 7 19 7 19 1 0 -6 11 -6 29 -1 16 4 31 6 34 4 2 -3
10 2 17 11 14 17 26 19 35 5z m3795 -10 c12 -8 9 -10 -12 -10 -15 0 -30 5 -33
10 -8 13 25 13 45 0z m-395 -20 c33 -1 69 -3 80 -4 11 -1 66 -6 123 -10 56 -5
105 -12 108 -17 3 -5 -21 -7 -53 -4 -32 3 -107 7 -168 9 -129 6 -205 16 -205
27 0 12 23 17 40 9 8 -4 42 -8 75 -10z m-24 -55 c3 -2 57 -6 120 -10 62 -3
150 -10 194 -16 84 -10 248 -7 278 6 12 5 17 3 17 -8 0 -27 -77 -28 -405 -8
-231 14 -280 20 -302 37 -16 12 -11 13 37 8 30 -3 57 -7 61 -9z m-2473 -40
c-2 -15 -6 -21 -11 -16 -6 6 -7 17 -4 25 9 24 17 19 15 -9z m2501 -19 c78 -13
112 -37 44 -30 -32 3 -89 12 -115 19 -5 2 -14 3 -21 4 -7 0 -22 8 -33 16 -21
17 -35 18 125 -9z m-54 -46 c47 -11 123 -22 168 -25 45 -3 105 -8 132 -11 89
-10 139 -13 188 -14 30 0 46 -4 42 -10 -3 -6 -16 -8 -28 -5 -12 2 -94 7 -182
9 -156 5 -217 12 -320 36 -27 6 -59 13 -69 16 -23 4 -46 24 -28 24 6 0 50 -9
97 -20z m-2050 0 c3 -5 1 -10 -4 -10 -6 0 -11 5 -11 10 0 6 2 10 4 10 3 0 8
-4 11 -10z m2087 -64 c113 -26 312 -41 536 -41 67 0 122 -3 122 -6 0 -12 -123
-20 -215 -15 -49 3 -144 8 -210 11 -66 3 -158 14 -205 25 -47 11 -94 22 -105
24 -11 3 -33 9 -50 14 -61 21 16 13 127 -12z m628 13 c0 -5 -3 -9 -7 -10 -5 0
-19 -2 -33 -4 -30 -4 -80 4 -80 13 0 4 27 8 60 9 33 0 60 -3 60 -8z m-670 -59
c52 -19 181 -40 281 -45 57 -3 133 -8 169 -11 52 -5 155 -6 189 -2 3 0 20 0
36 -1 29 -2 29 -3 7 -12 -13 -5 -35 -9 -50 -10 -71 -3 -455 23 -512 35 -36 8
-102 22 -147 31 -46 10 -80 22 -77 27 7 10 61 4 104 -12z m32 -66 c20 -7 86
-20 147 -30 61 -10 111 -22 111 -27 0 -4 -17 -6 -37 -3 -100 15 -124 19 -198
36 -44 10 -102 22 -130 26 -42 6 -46 8 -25 14 29 8 80 2 132 -16z m78 -72 c47
-11 110 -23 140 -26 30 -3 87 -9 125 -13 39 -4 127 -7 198 -7 70 0 127 -3 127
-7 0 -11 -59 -17 -125 -13 -33 2 -114 6 -180 9 -132 6 -153 9 -270 35 -80 18
-175 33 -207 32 -10 0 -21 4 -24 10 -10 15 111 4 216 -20z m480 16 c87 0 118
-3 101 -10 -25 -9 -165 -11 -276 -3 -33 2 -72 4 -87 5 -16 0 -28 5 -28 11 0 8
25 9 83 4 45 -3 138 -6 207 -7z m-521 -63 c35 -3 72 -10 83 -16 11 -6 22 -8
25 -5 3 2 16 1 30 -5 13 -5 45 -11 71 -14 26 -3 72 -9 102 -13 30 -3 119 -7
197 -7 95 0 139 -3 132 -10 -9 -9 -110 -11 -289 -5 -30 1 -80 6 -110 11 -30 5
-73 11 -95 15 -22 3 -58 10 -80 15 -54 13 -78 17 -160 24 -81 7 -98 12 -91 23
3 5 31 5 63 1 32 -5 87 -11 122 -14z m-14 -61 c33 -3 69 -7 80 -8 11 0 26 -5
33 -9 6 -5 16 -6 20 -3 5 3 30 -1 55 -9 26 -8 66 -16 89 -18 23 -2 44 -9 46
-15 4 -14 -18 -15 -73 -3 -22 5 -58 12 -80 15 -22 4 -76 13 -120 21 -65 12
-131 20 -197 25 -5 0 -8 4 -8 9 0 9 35 8 155 -5z m-46 -57 c19 -1 36 -8 38
-14 3 -9 -4 -11 -24 -8 -15 3 -53 7 -83 9 -30 3 -58 5 -62 5 -5 1 -8 5 -8 11
0 6 21 7 53 4 28 -3 67 -6 86 -7z m609 -7 c58 -1 102 -5 102 -10 0 -13 -103
-15 -230 -5 -19 1 -50 3 -68 4 -18 0 -31 5 -27 10 3 6 31 8 63 5 31 -2 103 -4
160 -4z m-343 -26 c32 -8 81 -17 109 -20 28 -3 74 -8 101 -12 28 -4 94 -7 147
-7 89 0 118 -6 86 -17 -14 -5 -223 0 -273 6 -16 3 -61 9 -100 16 -147 23 -269
38 -277 34 -4 -3 -8 2 -8 11 0 14 11 15 79 10 43 -3 105 -12 136 -21z m-165
-39 c82 -5 132 -10 175 -21 6 -1 30 -5 54 -9 23 -3 53 -10 65 -15 25 -9 244
-26 299 -23 26 2 36 -1 31 -9 -10 -16 -282 -2 -394 20 -30 6 -80 14 -110 18
-30 4 -64 8 -75 9 -11 2 -47 6 -80 10 -142 15 -197 24 -205 32 -3 3 29 3 70
-1 41 -3 118 -8 170 -11z m-180 -55 c0 -5 -13 -10 -29 -10 -17 0 -33 5 -36 10
-4 6 8 10 29 10 20 0 36 -4 36 -10z m220 -11 c0 -4 25 -7 55 -8 31 0 60 -3 65
-6 6 -4 34 -8 63 -11 71 -7 89 -10 113 -17 21 -7 71 -13 211 -24 45 -3 81 -9
78 -12 -4 -8 -145 -6 -237 3 -63 7 -79 9 -138 21 -39 7 -80 13 -145 21 -33 3
-68 8 -78 10 -9 1 -54 6 -100 10 -120 9 -116 22 7 20 58 0 106 -4 106 -7z
m-147 -59 c4 0 7 -5 7 -11 0 -5 -5 -7 -12 -3 -6 4 -31 7 -55 7 -24 0 -46 3
-49 8 -3 5 18 7 48 5 29 -3 56 -5 61 -6z m182 -15 c44 -3 91 -8 105 -10 14 -3
45 -8 70 -11 25 -3 56 -8 70 -10 14 -2 43 -6 65 -9 22 -2 56 -7 75 -11 19 -4
38 -7 43 -6 4 1 7 -3 7 -9 0 -11 -52 -9 -140 5 -128 21 -171 27 -205 30 -96
10 -181 19 -195 21 -8 2 -25 4 -37 4 -13 1 -23 6 -23 12 0 8 14 9 43 5 23 -3
78 -8 122 -11z m-240 -46 c11 -16 -2 -22 -32 -14 -26 7 -26 8 -8 15 28 12 33
12 40 -1z m180 -16 c44 -2 109 -11 145 -18 l65 -14 -115 5 c-63 3 -118 8 -122
10 -5 3 -34 7 -65 10 -32 3 -62 10 -68 16 -7 7 3 9 35 3 25 -3 81 -9 125 -12z
m570 -3 c4 -6 -9 -10 -32 -9 -38 1 -38 1 -8 9 17 4 31 8 32 9 1 0 5 -3 8 -9z
m-215 -50 c0 -5 -7 -7 -15 -4 -8 4 -15 8 -15 10 0 2 7 4 15 4 8 0 15 -4 15
-10z m97 -16 c-3 -3 -12 -4 -19 -1 -8 3 -5 6 6 6 11 1 17 -2 13 -5z"/>
<path d="M2623 6549 c14 -8 17 -18 12 -40 -8 -36 2 -38 15 -3 8 20 15 24 33
19 19 -5 20 -4 4 5 -9 6 -21 9 -26 6 -5 -3 -14 1 -21 9 -7 8 -18 15 -24 15 -6
0 -3 -5 7 -11z"/>
<path d="M2740 6540 c11 -20 40 -28 40 -10 0 9 -31 30 -45 30 -3 0 -1 -9 5
-20z"/>
<path d="M3647 6476 c-18 -27 -33 -76 -23 -76 9 0 49 90 43 96 -2 3 -11 -6
-20 -20z"/>
<path d="M2820 6395 c0 -8 -6 -15 -12 -15 -9 0 -9 -3 1 -9 16 -10 53 0 51 14
-1 6 -8 9 -17 7 -8 -2 -12 1 -8 7 3 6 1 11 -4 11 -6 0 -11 -7 -11 -15z"/>
<path d="M2979 6401 c11 -7 11 -9 0 -14 -10 -4 -9 -6 3 -6 23 -1 48 9 48 20 0
5 -15 9 -32 9 -23 0 -29 -3 -19 -9z"/>
<path d="M3140 6380 c0 -5 5 -10 10 -10 6 0 10 5 10 10 0 6 -4 10 -10 10 -5 0
-10 -4 -10 -10z"/>
<path d="M2670 6371 c-8 -6 -18 -7 -22 -5 -4 3 -8 -9 -8 -26 0 -25 4 -31 18
-28 9 2 16 9 15 16 -2 6 4 9 12 6 11 -5 14 1 13 20 -3 28 -6 30 -28 17z"/>
<path d="M2542 6328 c-16 -16 -15 -28 2 -28 9 0 14 9 13 20 -1 11 -2 20 -2 20
-1 0 -6 -5 -13 -12z"/>
<path d="M3492 6319 c1 -13 8 -23 13 -21 15 3 12 35 -3 40 -9 3 -13 -3 -10
-19z"/>
<path d="M2496 6313 c-12 -12 -6 -33 9 -33 8 0 15 6 15 14 0 17 -14 28 -24 19z"/>
<path d="M3066 6283 c-6 -14 -5 -15 5 -6 7 7 10 15 7 18 -3 3 -9 -2 -12 -12z"/>
<path d="M2750 6260 c0 -11 2 -20 4 -20 2 0 6 9 9 20 3 11 1 20 -4 20 -5 0 -9
-9 -9 -20z"/>
<path d="M3168 6273 c7 -3 16 -2 19 1 4 3 -2 6 -13 5 -11 0 -14 -3 -6 -6z"/>
<path d="M3375 6270 c3 -5 13 -10 21 -10 8 0 12 5 9 10 -3 6 -13 10 -21 10 -8
0 -12 -4 -9 -10z"/>
<path d="M3631 6261 c-10 -17 -9 -21 3 -21 20 0 27 13 16 29 -6 11 -10 9 -19
-8z"/>
<path d="M2373 6246 c-29 -14 -37 -34 -19 -52 17 -16 30 -19 21 -4 -3 6 -1 10
5 10 6 0 8 5 5 11 -4 6 1 16 11 23 22 17 6 25 -23 12z"/>
<path d="M2411 6208 c-1 -21 3 -25 19 -21 26 7 44 29 30 38 -13 8 -32 -4 -25
-16 4 -5 2 -9 -4 -9 -5 0 -12 8 -14 18 -3 11 -5 7 -6 -10z"/>
<path d="M3525 6220 c-3 -5 -2 -10 4 -10 5 0 13 5 16 10 3 6 2 10 -4 10 -5 0
-13 -4 -16 -10z"/>
<path d="M2503 6205 c0 -8 4 -12 9 -9 5 3 6 10 3 15 -9 13 -12 11 -12 -6z"/>
<path d="M3770 6180 c0 -6 -5 -8 -11 -4 -7 4 -10 1 -7 -6 2 -8 9 -15 15 -17
14 -5 25 25 13 32 -6 4 -10 1 -10 -5z"/>
<path d="M2323 6134 c4 -4 1 -14 -6 -22 -10 -13 -9 -14 11 -3 27 14 27 17 5
25 -10 4 -14 4 -10 0z"/>
<path d="M2365 6130 c3 -5 10 -10 16 -10 5 0 9 5 9 10 0 6 -7 10 -16 10 -8 0
-12 -4 -9 -10z"/>
<path d="M3875 6059 c-10 -14 -1 -21 19 -13 9 3 13 10 10 15 -7 12 -21 11 -29
-2z"/>
<path d="M3804 6045 c10 -8 23 -12 28 -9 13 8 5 14 -23 19 -23 4 -23 4 -5 -10z"/>
<path d="M2215 6030 c-3 -5 -1 -10 4 -10 6 0 11 5 11 10 0 6 -2 10 -4 10 -3 0
-8 -4 -11 -10z"/>
<path d="M2240 6020 c0 -19 1 -19 20 -3 11 10 20 19 20 20 0 2 -9 3 -20 3 -13
0 -20 -7 -20 -20z"/>
<path d="M2165 5990 c-13 -28 -15 -44 -8 -51 12 -12 63 -1 63 13 0 5 -10 6
-22 2 -20 -6 -21 -5 -9 10 11 13 11 16 0 16 -8 0 -6 5 5 13 15 11 16 15 3 25
-11 10 -17 5 -32 -28z"/>
<path d="M3990 5960 c0 -5 5 -10 10 -10 6 0 10 5 10 10 0 6 -4 10 -10 10 -5 0
-10 -4 -10 -10z"/>
<path d="M2137 5913 c-4 -3 -7 -11 -7 -17 0 -6 5 -5 12 2 6 6 9 14 7 17 -3 3
-9 2 -12 -2z"/>
<path d="M4060 5872 c0 -6 9 -12 20 -15 11 -3 20 -3 20 -1 0 2 -9 8 -20 14
-11 6 -20 7 -20 2z"/>
<path d="M3950 5866 c0 -2 6 -9 14 -15 10 -9 15 -8 20 4 4 10 -1 15 -14 15
-11 0 -20 -2 -20 -4z"/>
<path d="M4020 5838 c0 -9 5 -20 10 -23 13 -8 13 5 0 25 -8 13 -10 13 -10 -2z"/>
<path d="M4090 5821 c0 -5 5 -13 10 -16 6 -3 10 -2 10 4 0 5 -4 13 -10 16 -5
3 -10 2 -10 -4z"/>
<path d="M4144 5690 c0 -24 11 -26 20 -4 8 22 8 24 -7 24 -7 0 -13 -9 -13 -20z"/>
<path d="M4200 5569 c0 -11 4 -18 10 -14 5 3 7 12 3 20 -7 21 -13 19 -13 -6z"/>
<path d="M4245 5432 c1 -23 5 -45 9 -49 8 -9 6 36 -4 67 -6 19 -8 16 -5 -18z"/>
<path d="M635 5260 c-4 -6 -3 -16 3 -22 6 -6 12 -6 17 2 4 6 3 16 -3 22 -6 6
-12 6 -17 -2z"/>
<path d="M700 5216 c0 -44 14 -46 36 -5 8 17 11 28 4 24 -6 -4 -17 -1 -25 5
-13 11 -15 7 -15 -24z"/>
<path d="M500 5224 l-25 -15 25 7 c14 3 29 10 35 15 15 14 -7 10 -35 -7z"/>
<path d="M790 4995 c-7 -9 -11 -18 -8 -20 3 -3 11 1 18 10 7 9 11 18 8 20 -3
3 -11 -1 -18 -10z"/>
<path d="M1655 4559 c-6 -19 0 -38 9 -28 10 12 16 49 7 49 -5 0 -13 -9 -16
-21z"/>
<path d="M6655 4470 c-7 -12 2 -12 30 0 19 8 19 9 -2 9 -12 1 -25 -3 -28 -9z"/>
<path d="M6640 4270 c0 -5 5 -10 10 -10 6 0 10 5 10 10 0 6 -4 10 -10 10 -5 0
-10 -4 -10 -10z"/>
<path d="M6608 4253 c7 -3 16 -2 19 1 4 3 -2 6 -13 5 -11 0 -14 -3 -6 -6z"/>
<path d="M6570 4246 c0 -2 7 -7 16 -10 8 -3 12 -2 9 4 -6 10 -25 14 -25 6z"/>
<path d="M6530 4236 c0 -2 7 -7 16 -10 8 -3 12 -2 9 4 -6 10 -25 14 -25 6z"/>
<path d="M6498 4213 c7 -3 16 -2 19 1 4 3 -2 6 -13 5 -11 0 -14 -3 -6 -6z"/>
<path d="M6400 4130 c-13 -8 -13 -10 2 -10 9 0 20 5 23 10 8 13 -5 13 -25 0z"/>
<path d="M2150 4040 c-11 -7 -12 -12 -3 -21 16 -16 44 -4 37 16 -7 17 -13 18
-34 5z"/>
<path d="M2243 4027 c5 -15 37 -22 37 -9 0 5 -9 12 -21 15 -13 3 -19 1 -16 -6z"/>
<path d="M6246 3591 c-3 -5 1 -11 9 -15 15 -6 29 7 18 18 -9 9 -21 8 -27 -3z"/>
<path d="M5820 3620 c-13 -24 -35 -26 -44 -5 -8 23 -25 18 -36 -10 -10 -26
-24 -32 -35 -15 -12 19 -25 0 -15 -21 15 -27 58 -25 69 3 5 14 10 17 15 10 11
-18 53 -14 59 6 2 9 8 25 12 35 10 24 -12 22 -25 -3z"/>
<path d="M5735 3470 c3 -5 8 -10 11 -10 2 0 4 5 4 10 0 6 -5 10 -11 10 -5 0
-7 -4 -4 -10z"/>
<path d="M5770 3450 c0 -5 7 -10 15 -10 8 0 15 5 15 10 0 6 -7 10 -15 10 -8 0
-15 -4 -15 -10z"/>
<path d="M5796 3191 c-4 -5 3 -7 14 -4 23 6 26 13 6 13 -8 0 -17 -4 -20 -9z"/>
<path d="M725 3630 c-3 -5 1 -10 9 -10 9 0 16 5 16 10 0 6 -4 10 -9 10 -6 0
-13 -4 -16 -10z"/>
<path d="M786 2841 c-3 -5 3 -11 14 -14 15 -4 18 -10 13 -24 -6 -17 -5 -17 15
1 27 24 28 40 2 33 -11 -3 -20 -1 -20 4 0 12 -17 12 -24 0z"/>
<path d="M830 2700 c12 -23 35 -22 35 1 0 8 -10 15 -23 17 -21 3 -22 1 -12
-18z"/>
<path d="M435 2670 c4 -6 11 -8 16 -5 14 9 11 15 -7 15 -8 0 -12 -5 -9 -10z"/>
<path d="M6430 2671 c0 -6 4 -13 10 -16 6 -3 7 1 4 9 -7 18 -14 21 -14 7z"/>
<path d="M6358 2568 c6 -6 18 -8 28 -6 14 3 12 5 -9 10 -19 3 -25 2 -19 -4z"/>
<path d="M642 7353 c24 -26 64 -70 90 -97 l46 -50 6 54 c4 30 8 74 10 98 l4
42 -100 0 -99 0 43 -47z"/>
<path d="M1976 7385 c4 -8 8 -15 10 -15 2 0 4 7 4 15 0 8 -4 15 -10 15 -5 0
-7 -7 -4 -15z"/>
<path d="M5580 7385 c0 -9 10 -15 26 -15 14 0 34 -5 46 -11 28 -15 33 -4 9 20
-25 25 -81 29 -81 6z"/>
<path d="M5727 7341 c-32 -33 -57 -63 -57 -66 0 -10 49 23 75 49 54 55 69 76
53 76 -8 0 -40 -27 -71 -59z"/>
<path d="M5540 7295 c-25 -40 -25 -40 12 -49 26 -6 26 -5 21 37 -3 23 -7 43
-8 45 -2 2 -13 -13 -25 -33z"/>
<path d="M0 5815 c0 -26 4 -35 12 -31 7 3 21 9 31 12 24 9 21 17 -13 37 l-30
18 0 -36z"/>
<path d="M6563 3466 c1 -11 9 -21 17 -23 10 -3 11 -2 4 4 -6 4 -14 15 -17 23
-5 11 -6 9 -4 -4z"/>
<path d="M0 2854 c0 -8 5 -12 10 -9 6 3 10 10 10 16 0 5 -4 9 -10 9 -5 0 -10
-7 -10 -16z"/>
<path d="M6626 2827 c3 -10 9 -15 12 -12 3 3 0 11 -7 18 -10 9 -11 8 -5 -6z"/>
<path d="M6644 2767 c3 -33 12 -43 19 -23 3 8 -1 22 -8 33 -13 17 -14 16 -11
-10z"/>
<path d="M5305 2690 c11 -5 40 -8 65 -8 l45 0 -40 9 c-22 4 -51 8 -65 8 -23 0
-23 -1 -5 -9z"/>
<path d="M5303 2646 c21 -16 102 -30 117 -21 21 13 -1 23 -46 21 -25 -1 -48 2
-50 6 -3 4 -13 8 -22 8 -15 -1 -15 -2 1 -14z"/>
<path d="M5320 2602 c0 -12 95 -31 121 -25 36 10 19 19 -33 19 -29 1 -61 4
-70 8 -10 5 -18 4 -18 -2z"/>
<path d="M5470 2586 c0 -2 7 -7 16 -10 8 -3 12 -2 9 4 -6 10 -25 14 -25 6z"/>
<path d="M5290 2576 c0 -2 12 -11 26 -21 17 -11 25 -12 22 -4 -4 11 -48 34
-48 25z"/>
<path d="M5555 2570 c3 -5 8 -10 11 -10 2 0 4 5 4 10 0 6 -5 10 -11 10 -5 0
-7 -4 -4 -10z"/>
<path d="M5350 2550 c0 -21 21 -24 138 -17 6 0 12 4 12 8 0 5 -18 7 -41 5 -22
-2 -56 0 -75 4 -19 4 -34 4 -34 0z"/>
<path d="M5270 2536 c0 -2 9 -6 20 -9 11 -3 18 -1 14 4 -5 9 -34 13 -34 5z"/>
<path d="M5580 2520 c20 -13 33 -13 25 0 -3 6 -14 10 -23 10 -15 0 -15 -2 -2
-10z"/>
<path d="M5330 2510 c0 -12 28 -25 36 -17 3 3 -4 10 -15 17 -15 7 -21 7 -21 0z"/>
<path d="M5630 2495 c7 -9 15 -13 17 -11 7 7 -7 26 -19 26 -6 0 -6 -6 2 -15z"/>
<path d="M5380 2488 c0 -6 7 -8 15 -5 8 4 17 2 20 -3 4 -6 13 -7 23 -1 9 5 32
7 50 5 20 -2 31 0 27 6 -8 13 -135 11 -135 -2z"/>
<path d="M5550 2490 c0 -5 5 -10 11 -10 5 0 7 5 4 10 -3 6 -8 10 -11 10 -2 0
-4 -4 -4 -10z"/>
<path d="M5324 2465 c44 -36 126 -52 126 -24 0 4 -7 6 -15 3 -17 -7 -115 26
-115 38 0 4 -6 8 -12 8 -7 -1 0 -11 16 -25z"/>
<path d="M5605 2456 c17 -7 32 -11 35 -9 8 7 -24 23 -45 22 -15 0 -13 -3 10
-13z"/>
<path d="M5298 2440 c12 -5 22 -14 22 -19 0 -6 13 -17 30 -26 33 -17 85 -21
75 -5 -3 6 -19 10 -36 10 -16 0 -29 5 -29 11 0 6 -6 9 -13 6 -7 -3 -19 4 -25
14 -7 10 -20 19 -30 18 -13 0 -12 -2 6 -9z"/>
<path d="M5215 2400 c-3 -5 -1 -10 4 -10 6 0 11 5 11 10 0 6 -2 10 -4 10 -3 0
-8 -4 -11 -10z"/>
<path d="M5301 2385 c19 -13 43 -31 54 -39 11 -9 34 -15 50 -15 107 2 135 5
135 11 0 9 -12 10 -98 8 -55 -1 -67 2 -104 29 -23 17 -48 31 -56 31 -8 0 0
-11 19 -25z"/>
<path d="M5524 2388 c-4 -7 -4 -10 1 -6 4 4 14 3 22 -3 10 -9 13 -8 13 2 0 8
6 5 15 -7 8 -10 15 -15 15 -10 0 5 7 3 15 -4 10 -8 15 -9 15 -1 0 12 -52 41
-74 41 -8 0 -18 -6 -22 -12z"/>
<path d="M2296 2368 c3 -5 10 -6 15 -3 13 9 11 12 -6 12 -8 0 -12 -4 -9 -9z"/>
<path d="M5280 2361 c0 -6 6 -11 13 -11 6 0 21 -14 32 -30 25 -37 91 -62 105
-39 7 11 1 16 -27 22 -20 4 -51 18 -67 30 -45 34 -56 39 -56 28z"/>
<path d="M5550 2336 c0 -8 14 -16 30 -18 17 -3 30 -1 30 3 0 4 -13 12 -30 18
-24 8 -30 7 -30 -3z"/>
<path d="M5860 2320 c-18 -12 -2 -12 25 0 13 6 15 9 5 9 -8 0 -22 -4 -30 -9z"/>
<path d="M5510 2295 c0 -8 9 -15 20 -15 11 0 20 2 20 5 0 2 -9 9 -20 15 -16 9
-20 8 -20 -5z"/>
<path d="M5563 2285 c0 -8 4 -15 9 -15 4 0 8 4 8 9 0 6 -4 12 -8 15 -5 3 -9
-1 -9 -9z"/>
<path d="M5235 2265 c-19 -15 -19 -15 5 -6 14 4 32 6 40 4 8 -3 20 -6 25 -8 6
-1 15 -3 20 -4 6 -1 20 -8 31 -16 16 -10 24 -11 33 -2 8 8 11 8 11 -2 0 -9 13
-11 53 -6 30 4 70 2 89 -3 37 -10 74 0 43 12 -9 3 -22 3 -27 -1 -7 -3 -8 -1
-4 5 7 11 -38 19 -69 12 -47 -10 -85 -6 -117 10 -23 12 -38 15 -38 9 0 -7 -5
-8 -12 -2 -22 15 -62 15 -83 -2z"/>
<path d="M5270 2230 c0 -6 5 -8 10 -5 6 3 10 1 10 -6 0 -7 3 -9 6 -6 4 3 17
-2 31 -12 31 -25 87 -34 145 -23 26 5 49 6 50 2 5 -11 68 -21 68 -11 0 5 -15
13 -32 16 -18 4 -39 12 -47 19 -10 8 -15 8 -18 0 -5 -15 -103 -10 -134 7 -13
7 -29 14 -35 15 -6 1 -21 5 -33 9 -13 4 -21 2 -21 -5z"/>
<path d="M5288 2173 c6 -2 18 -2 25 0 6 3 1 5 -13 5 -14 0 -19 -2 -12 -5z"/>
<path d="M1355 2160 c3 -5 8 -10 11 -10 2 0 4 5 4 10 0 6 -5 10 -11 10 -5 0
-7 -4 -4 -10z"/>
<path d="M5330 2160 c0 -23 47 -40 91 -34 24 3 62 6 84 5 32 -1 37 1 22 10
-10 6 -43 8 -75 6 -38 -3 -66 0 -82 9 -30 16 -40 17 -40 4z"/>
<path d="M5550 2130 c0 -5 7 -10 15 -10 8 0 15 5 15 10 0 6 -7 10 -15 10 -8 0
-15 -4 -15 -10z"/>
<path d="M1178 2113 c7 -3 16 -2 19 1 4 3 -2 6 -13 5 -11 0 -14 -3 -6 -6z"/>
<path d="M5434 2084 c-18 -14 -18 -15 4 -4 12 6 22 13 22 15 0 8 -5 6 -26 -11z"/>
<path d="M5470 2084 c0 -11 7 -14 30 -10 19 2 30 0 30 -7 0 -7 5 -6 10 3 6 10
10 11 10 3 0 -7 4 -13 10 -13 5 0 7 7 3 16 -4 11 -15 15 -39 12 -19 -2 -34 0
-34 4 0 4 -4 8 -10 8 -5 0 -10 -7 -10 -16z"/>
<path d="M1045 2060 c-8 -13 5 -13 25 0 13 8 13 10 -2 10 -9 0 -20 -4 -23 -10z"/>
<path d="M5360 2034 c0 -16 44 -26 75 -18 40 10 29 22 -25 26 -33 2 -50 -1
-50 -8z"/>
<path d="M5480 2031 c0 -10 21 -16 43 -12 4 1 18 -4 30 -10 20 -10 21 -10 7 5
-19 20 -80 33 -80 17z"/>
<path d="M1220 2010 c-8 -5 -10 -10 -5 -10 6 0 17 5 25 10 8 5 11 10 5 10 -5
0 -17 -5 -25 -10z"/>
<path d="M1128 1993 c7 -3 16 -2 19 1 4 3 -2 6 -13 5 -11 0 -14 -3 -6 -6z"/>
<path d="M6190 1980 c-14 -11 -20 -20 -15 -19 13 0 50 28 44 33 -2 3 -15 -4
-29 -14z"/>
<path d="M5414 1981 c-13 -13 1 -21 39 -21 30 0 44 4 44 13 0 9 -13 13 -39 13
-22 -1 -42 -3 -44 -5z"/>
<path d="M5767 1934 c-31 -31 -57 -61 -57 -65 0 -10 14 3 79 74 60 64 47 59
-22 -9z"/>
<path d="M1256 1969 c3 -5 16 -9 30 -9 14 0 23 4 20 9 -3 5 -17 9 -31 9 -13 0
-22 -4 -19 -9z"/>
<path d="M5514 1971 c10 -15 43 -19 43 -5 0 8 -11 14 -24 14 -13 0 -22 -4 -19
-9z"/>
<path d="M6112 1913 c-24 -24 -24 -25 -2 -8 42 33 44 35 37 35 -4 0 -19 -12
-35 -27z"/>
<path d="M1188 1923 c7 -3 16 -2 19 1 4 3 -2 6 -13 5 -11 0 -14 -3 -6 -6z"/>
<path d="M1255 1920 c3 -5 8 -10 11 -10 2 0 4 5 4 10 0 6 -5 10 -11 10 -5 0
-7 -4 -4 -10z"/>
<path d="M6495 1910 c-18 -8 -18 -9 5 -9 14 0 32 4 40 9 12 8 12 10 -5 9 -11
0 -29 -4 -40 -9z"/>
<path d="M1010 1895 c-11 -13 -10 -14 4 -9 9 3 16 10 16 15 0 13 -6 11 -20 -6z"/>
<path d="M6139 1883 c-13 -16 -12 -17 4 -4 16 13 21 21 13 21 -2 0 -10 -8 -17
-17z"/>
<path d="M5639 1873 c-13 -16 -12 -17 4 -4 16 13 21 21 13 21 -2 0 -10 -8 -17
-17z"/>
<path d="M5816 1839 c-31 -28 -56 -56 -56 -61 0 -10 10 -1 90 75 60 56 30 44
-34 -14z"/>
<path d="M1021 1869 c-13 -5 -22 -12 -19 -14 6 -6 58 12 58 20 0 7 -11 5 -39
-6z"/>
<path d="M5402 1869 c3 -10 26 -15 68 -17 36 -2 70 -8 77 -14 10 -8 13 -5 13
11 0 11 -3 21 -7 21 -5 1 -41 3 -82 6 -59 5 -73 4 -69 -7z"/>
<path d="M6030 1855 c-7 -8 -8 -15 -2 -15 5 0 15 7 22 15 7 8 8 15 2 15 -5 0
-15 -7 -22 -15z"/>
<path d="M6078 1839 l-33 -31 38 27 c20 15 37 29 37 31 0 10 -12 2 -42 -27z"/>
<path d="M870 1846 c0 -2 14 -14 30 -26 17 -12 30 -18 30 -13 0 5 -13 17 -30
26 -16 10 -30 16 -30 13z"/>
<path d="M1115 1840 c3 -5 8 -10 11 -10 2 0 4 5 4 10 0 6 -5 10 -11 10 -5 0
-7 -4 -4 -10z"/>
<path d="M5656 1805 c-21 -25 -34 -45 -29 -45 8 1 77 90 70 90 -3 0 -21 -20
-41 -45z"/>
<path d="M1024 1828 c-3 -5 -10 -6 -15 -3 -5 4 -9 2 -9 -3 0 -16 13 -22 26
-11 7 6 25 14 41 19 28 9 28 9 -5 7 -19 -1 -36 -5 -38 -9z"/>
<path d="M5821 1771 c-39 -38 -77 -85 -86 -103 l-16 -33 23 29 c21 28 34 42
122 135 65 68 31 46 -43 -28z"/>
<path d="M6411 1819 c-13 -5 -21 -12 -18 -15 3 -3 18 1 34 10 31 17 21 20 -16
5z"/>
<path d="M6115 1810 c-3 -6 1 -7 9 -4 18 7 21 14 7 14 -6 0 -13 -4 -16 -10z"/>
<path d="M1056 1795 c-28 -7 -57 -10 -65 -7 -13 4 -12 1 3 -16 18 -21 18 -21
45 -1 15 11 41 20 59 22 17 1 32 5 32 10 0 10 -16 8 -74 -8z"/>
<path d="M5576 1785 c-9 -26 -7 -32 5 -12 6 10 9 21 6 23 -2 3 -7 -2 -11 -11z"/>
<path d="M5900 1780 c0 -5 7 -7 15 -4 8 4 15 8 15 10 0 2 -7 4 -15 4 -8 0 -15
-4 -15 -10z"/>
<path d="M1135 1760 c-16 -7 -12 -9 18 -9 23 -1 36 3 32 9 -7 12 -23 12 -50 0z"/>
<path d="M5962 1750 c-45 -24 -47 -28 -18 -23 14 3 33 14 42 24 21 23 18 23
-24 -1z"/>
<path d="M6029 1753 c-13 -16 -12 -17 4 -4 9 7 17 15 17 17 0 8 -8 3 -21 -13z"/>
<path d="M916 1750 c6 -6 23 -13 37 -16 15 -2 38 -9 52 -14 19 -7 33 -5 62 13
35 20 36 22 15 25 -13 2 -35 -4 -48 -13 -24 -15 -29 -15 -65 -1 -46 19 -68 21
-53 6z"/>
<path d="M5726 1735 c-9 -14 -13 -25 -8 -25 5 0 14 11 20 25 6 14 10 25 8 25
-2 0 -11 -11 -20 -25z"/>
<path d="M844 1735 c11 -8 24 -15 30 -15 5 0 1 7 -10 15 -10 8 -23 14 -29 14
-5 0 -1 -6 9 -14z"/>
<path d="M5594 1725 c-9 -14 -14 -28 -11 -31 3 -3 13 8 22 25 19 37 12 41 -11
6z"/>
<path d="M6369 1733 c-13 -15 -12 -15 9 -4 23 12 28 21 13 21 -5 0 -15 -7 -22
-17z"/>
<path d="M1110 1711 c0 -4 11 -6 25 -3 14 2 25 6 25 8 0 2 -11 4 -25 4 -14 0
-25 -4 -25 -9z"/>
<path d="M6325 1710 c-3 -6 1 -7 9 -4 18 7 21 14 7 14 -6 0 -13 -4 -16 -10z"/>
<path d="M6029 1702 c-9 -4 -29 -22 -45 -41 -25 -30 -75 -60 -112 -67 -24 -4
-26 -14 -4 -14 31 0 80 31 135 84 26 25 46 46 45 45 -2 0 -10 -3 -19 -7z"/>
<path d="M5696 1683 c-3 -11 -30 -55 -59 -99 -52 -79 -71 -92 -106 -70 -6 4
-11 3 -11 -3 0 -5 -15 -9 -32 -9 -18 1 -44 -2 -57 -5 -40 -10 -111 -41 -111
-49 0 -7 4 -6 128 15 48 8 98 11 116 7 31 -7 34 -5 46 28 7 20 27 59 44 86 37
59 59 107 52 113 -2 2 -7 -4 -10 -14z"/>
<path d="M5965 1690 c-3 -5 -1 -10 4 -10 6 0 11 5 11 10 0 6 -2 10 -4 10 -3 0
-8 -4 -11 -10z"/>
<path d="M6350 1674 c-48 -34 -74 -63 -30 -34 54 36 84 60 74 59 -5 0 -25 -12
-44 -25z"/>
<path d="M830 1686 c0 -2 7 -7 16 -10 8 -3 12 -2 9 4 -6 10 -25 14 -25 6z"/>
<path d="M5777 1651 c-41 -45 -67 -92 -67 -118 0 -10 11 5 24 33 13 28 29 54
35 58 12 8 55 66 48 66 -3 0 -21 -18 -40 -39z"/>
<path d="M6618 1683 c7 -3 16 -2 19 1 4 3 -2 6 -13 5 -11 0 -14 -3 -6 -6z"/>
<path d="M781 1662 c8 -12 28 -29 45 -37 37 -18 48 -19 39 -5 -3 6 -14 10 -23
10 -9 0 -29 12 -45 28 -25 23 -27 24 -16 4z"/>
<path d="M5925 1670 c-4 -6 -10 -8 -14 -5 -5 2 -17 -2 -27 -11 -18 -15 -18
-15 1 -6 11 5 25 8 31 5 6 -2 17 3 24 12 8 9 8 15 2 15 -6 0 -14 -5 -17 -10z"/>
<path d="M6600 1630 c-20 -6 -21 -8 -5 -8 11 0 31 4 45 8 20 6 21 8 5 8 -11 0
-31 -4 -45 -8z"/>
<path d="M6315 1605 c-49 -30 -40 -33 12 -4 44 24 50 29 37 29 -5 0 -27 -11
-49 -25z"/>
<path d="M6254 1605 c-10 -8 -14 -15 -8 -15 6 0 17 7 24 15 16 19 9 19 -16 0z"/>
<path d="M5965 1600 c-4 -6 -25 -25 -47 -41 -23 -16 -36 -29 -30 -29 7 0 22 9
34 20 13 10 32 26 43 34 11 8 17 17 13 21 -3 3 -9 1 -13 -5z"/>
<path d="M797 1589 c7 -7 15 -10 18 -7 3 3 -2 9 -12 12 -14 6 -15 5 -6 -5z"/>
<path d="M6197 1571 c-38 -25 -42 -31 -19 -24 12 3 28 14 38 24 21 23 17 23
-19 0z"/>
<path d="M6600 1576 c-28 -6 -37 -11 -25 -13 27 -5 104 12 85 18 -8 3 -35 1
-60 -5z"/>
<path d="M830 1570 c-12 -8 -10 -10 8 -10 13 0 20 4 17 10 -7 12 -6 12 -25 0z"/>
<path d="M790 1531 c19 -16 37 -27 40 -25 6 6 -52 53 -65 53 -5 0 6 -13 25
-28z"/>
<path d="M840 1521 c0 -5 7 -12 16 -15 14 -5 15 -4 4 9 -14 17 -20 19 -20 6z"/>
<path d="M740 1517 c0 -3 20 -21 45 -41 25 -21 45 -33 45 -27 0 5 -20 24 -45
41 -25 17 -45 29 -45 27z"/>
<path d="M5881 1490 c-24 -17 -54 -30 -67 -30 -13 0 -26 -4 -29 -10 -8 -13 -4
-13 50 5 49 17 127 65 104 65 -8 0 -34 -14 -58 -30z"/>
<path d="M6530 1500 c-72 -25 -34 -25 55 -1 55 15 62 19 35 19 -19 0 -60 -8
-90 -18z"/>
<path d="M5225 1490 c27 -12 35 -12 35 0 0 6 -12 10 -27 9 -25 0 -26 -1 -8 -9z"/>
<path d="M6055 1479 c-11 -17 -2 -18 19 -3 17 12 17 14 4 14 -9 0 -20 -5 -23
-11z"/>
<path d="M840 1473 c0 -13 15 -24 63 -46 20 -9 37 -13 37 -8 0 5 -14 14 -32
20 -17 6 -40 19 -50 28 -10 9 -18 11 -18 6z"/>
<path d="M730 1465 c0 -2 20 -18 45 -35 25 -17 45 -27 45 -23 -1 8 -90 66 -90
58z"/>
<path d="M987 1439 c12 -12 25 -20 28 -17 3 3 -7 13 -22 23 l-28 17 22 -23z"/>
<path d="M5910 1445 c-14 -7 -33 -16 -42 -19 -10 -3 -18 -10 -18 -16 0 -9 64
22 85 41 13 13 4 11 -25 -6z"/>
<path d="M6010 1450 c-8 -5 -10 -10 -5 -10 6 0 17 5 25 10 8 5 11 10 5 10 -5
0 -17 -5 -25 -10z"/>
<path d="M6498 1438 c-41 -14 -34 -28 7 -15 19 6 35 14 35 19 0 10 -7 9 -42
-4z"/>
<path d="M839 1411 c6 -11 20 -23 32 -26 33 -11 30 -2 -7 23 -33 21 -34 22
-25 3z"/>
<path d="M5960 1415 c-14 -8 -20 -14 -14 -15 5 0 19 7 30 15 24 18 16 19 -16
0z"/>
<path d="M6447 1424 c-3 -4 -21 -10 -39 -15 -32 -9 -32 -9 6 -4 39 4 53 11 44
20 -2 3 -7 2 -11 -1z"/>
<path d="M990 1382 c25 -22 47 -38 49 -36 5 4 -13 19 -64 55 -16 12 -10 3 15
-19z"/>
<path d="M772 1380 c26 -16 55 -41 64 -55 9 -14 19 -23 22 -21 3 3 -1 12 -8
21 -21 25 -5 27 34 4 20 -11 36 -16 36 -10 0 6 -5 11 -11 11 -6 0 -24 9 -40
21 -18 13 -29 16 -29 8 0 -8 -5 -8 -17 3 -18 15 -81 48 -92 48 -3 0 15 -14 41
-30z"/>
<path d="M5894 1374 c-18 -14 -18 -14 6 -3 31 14 36 19 24 19 -6 0 -19 -7 -30
-16z"/>
<path d="M6435 1366 c-109 -28 -187 -55 -162 -56 9 0 50 9 90 21 39 12 99 28
132 36 33 8 62 16 64 19 10 10 -40 2 -124 -20z"/>
<path d="M940 1367 c15 -16 82 -57 70 -43 -7 10 -27 24 -44 33 -17 9 -29 13
-26 10z"/>
<path d="M727 1349 c7 -7 15 -10 18 -7 3 3 -2 9 -12 12 -14 6 -15 5 -6 -5z"/>
<path d="M5843 1350 c-13 -5 -23 -11 -23 -14 0 -7 40 6 46 15 6 10 6 10 -23
-1z"/>
<path d="M6580 1340 l-25 -8 25 0 c14 0 34 3 45 8 l20 9 -20 -1 c-11 0 -31 -4
-45 -8z"/>
<path d="M760 1337 c0 -2 23 -18 50 -35 28 -17 50 -26 50 -20 0 7 4 7 13 1 17
-13 67 -34 67 -28 0 6 -62 39 -75 41 -10 1 -82 31 -97 41 -5 2 -8 2 -8 0z"/>
<path d="M635 1320 c3 -5 8 -10 11 -10 2 0 4 5 4 10 0 6 -5 10 -11 10 -5 0 -7
-4 -4 -10z"/>
<path d="M661 1326 c2 -2 15 -9 29 -15 24 -11 24 -11 6 3 -16 13 -49 24 -35
12z"/>
<path d="M6450 1310 c-13 -8 -12 -10 3 -10 9 0 17 5 17 10 0 12 -1 12 -20 0z"/>
<path d="M6498 1313 c7 -3 16 -2 19 1 4 3 -2 6 -13 5 -11 0 -14 -3 -6 -6z"/>
<path d="M6340 1284 c-84 -25 -123 -43 -65 -30 73 16 155 41 155 48 0 5 -1 8
-2 7 -2 0 -41 -11 -88 -25z"/>
<path d="M610 1286 c0 -14 45 -44 51 -35 3 6 23 3 49 -6 60 -21 61 -12 1 13
-35 14 -51 17 -54 9 -3 -8 -11 -6 -26 7 -11 11 -21 16 -21 12z"/>
<path d="M775 1270 c3 -5 8 -10 11 -10 2 0 4 5 4 10 0 6 -5 10 -11 10 -5 0 -7
-4 -4 -10z"/>
<path d="M1019 1263 c12 -23 29 -38 37 -31 2 3 -8 15 -22 29 -25 23 -26 23
-15 2z"/>
<path d="M800 1260 c0 -5 6 -10 13 -10 7 0 24 -8 37 -17 14 -10 30 -18 36 -19
6 -1 22 -5 35 -8 19 -5 18 -3 -6 10 -16 9 -33 23 -38 30 -4 7 -14 11 -21 8 -8
-3 -24 -1 -35 6 -14 7 -21 7 -21 0z"/>
<path d="M964 1246 c11 -9 24 -16 30 -16 12 0 7 5 -24 19 -24 11 -24 11 -6 -3z"/>
<path d="M6456 1251 c-4 -5 3 -7 14 -4 23 6 26 13 6 13 -8 0 -17 -4 -20 -9z"/>
<path d="M6200 1241 c0 -5 9 -7 20 -4 11 3 20 7 20 9 0 2 -9 4 -20 4 -11 0
-20 -4 -20 -9z"/>
<path d="M6360 1230 c-13 -8 -12 -10 3 -10 9 0 17 5 17 10 0 12 -1 12 -20 0z"/>
<path d="M6398 1233 c7 -3 16 -2 19 1 4 3 -2 6 -13 5 -11 0 -14 -3 -6 -6z"/>
<path d="M6788 1233 c7 -3 16 -2 19 1 4 3 -2 6 -13 5 -11 0 -14 -3 -6 -6z"/>
<path d="M639 1189 c24 -22 63 -49 88 -60 62 -26 65 -18 4 11 -27 12 -63 38
-81 56 -17 19 -36 34 -42 34 -6 0 8 -18 31 -41z"/>
<path d="M662 1219 c2 -6 14 -16 27 -20 27 -11 19 6 -11 22 -16 8 -19 8 -16
-2z"/>
<path d="M6245 1203 c-27 -8 -62 -17 -78 -20 -15 -3 -30 -10 -33 -15 -4 -6 3
-8 17 -4 13 4 42 12 64 18 54 14 113 37 95 36 -8 0 -37 -7 -65 -15z"/>
<path d="M6040 1200 c-9 -6 -10 -10 -3 -10 6 0 15 5 18 10 8 12 4 12 -15 0z"/>
<path d="M865 1176 c22 -13 56 -26 75 -30 39 -7 43 -9 -56 35 -56 26 -67 23
-19 -5z"/>
<path d="M590 1170 c0 -6 4 -10 9 -10 4 0 26 -14 47 -31 41 -34 142 -84 150
-76 3 2 -9 9 -25 15 -17 6 -65 34 -106 61 -41 28 -75 46 -75 41z"/>
<path d="M780 1163 c117 -58 190 -88 190 -78 0 6 -46 29 -101 50 -117 46 -139
53 -89 28z"/>
<path d="M6745 1171 c-3 -6 4 -9 15 -8 11 1 20 5 20 9 0 11 -28 10 -35 -1z"/>
<path d="M6798 1173 c7 -3 16 -2 19 1 4 3 -2 6 -13 5 -11 0 -14 -3 -6 -6z"/>
<path d="M6060 1147 c0 -4 -4 -6 -8 -3 -9 5 -82 -40 -82 -51 0 -3 6 0 14 6 7
6 40 22 72 36 41 17 51 24 32 22 -16 -1 -28 -5 -28 -10z"/>
<path d="M995 1100 c-9 -16 -13 -30 -11 -30 3 0 12 14 21 30 9 17 13 30 11 30
-3 0 -12 -13 -21 -30z"/>
<path d="M596 1103 c11 -12 36 -29 55 -38 46 -23 19 4 -36 35 -36 21 -38 21
-19 3z"/>
<path d="M800 1100 c8 -5 20 -10 25 -10 6 0 3 5 -5 10 -8 5 -19 10 -25 10 -5
0 -3 -5 5 -10z"/>
<path d="M6619 1095 c-3 -2 -22 -6 -42 -8 -21 -2 -41 -8 -45 -12 -4 -4 15 -5
42 -1 50 6 64 12 54 21 -2 3 -7 3 -9 0z"/>
<path d="M845 1081 c16 -16 85 -42 85 -32 0 5 -21 16 -47 25 -26 9 -43 12 -38
7z"/>
<path d="M6488 1063 c7 -3 16 -2 19 1 4 3 -2 6 -13 5 -11 0 -14 -3 -6 -6z"/>
<path d="M690 1049 c0 -9 58 -41 105 -59 44 -17 27 -2 -40 33 -36 19 -65 31
-65 26z"/>
<path d="M6405 1044 c-16 -8 -22 -12 -12 -9 10 3 27 5 38 5 10 0 19 5 19 10 0
13 -9 12 -45 -6z"/>
<path d="M590 1045 c0 -2 18 -14 40 -25 50 -25 53 -19 4 9 -36 22 -44 24 -44
16z"/>
<path d="M837 1029 c7 -7 15 -10 18 -7 3 3 -2 9 -12 12 -14 6 -15 5 -6 -5z"/>
<path d="M880 1010 c8 -5 20 -10 25 -10 6 0 3 5 -5 10 -8 5 -19 10 -25 10 -5
0 -3 -5 5 -10z"/>
<path d="M6353 982 c-62 -20 -113 -40 -113 -44 0 -4 15 -2 33 3 17 6 55 16 82
24 28 8 77 23 110 34 46 15 53 20 30 20 -16 0 -81 -17 -142 -37z"/>
<path d="M6248 1003 c7 -3 16 -2 19 1 4 3 -2 6 -13 5 -11 0 -14 -3 -6 -6z"/>
<path d="M6875 1000 c-30 -8 -30 -8 8 -9 23 -1 36 3 32 9 -3 6 -7 9 -8 9 -1
-1 -15 -5 -32 -9z"/>
<path d="M935 963 c-9 -20 -14 -41 -12 -47 2 -6 11 11 20 37 19 56 14 63 -8
10z"/>
<path d="M6818 993 c7 -3 16 -2 19 1 4 3 -2 6 -13 5 -11 0 -14 -3 -6 -6z"/>
<path d="M539 957 c24 -27 41 -34 41 -19 0 4 -15 16 -32 26 l-33 19 24 -26z"/>
<path d="M620 972 c0 -8 72 -44 77 -38 1 1 -15 12 -37 24 -22 11 -40 18 -40
14z"/>
<path d="M765 952 c16 -13 67 -33 61 -23 -3 5 -20 14 -38 20 -18 6 -28 8 -23
3z"/>
<path d="M6340 937 c-107 -48 -139 -60 -198 -73 -98 -23 -119 -35 -47 -29 66
7 117 23 211 67 34 15 67 28 73 28 6 0 11 5 11 10 0 13 -18 12 -50 -3z"/>
<path d="M6185 929 c-16 -6 -13 -8 13 -8 17 -1 32 3 32 7 0 11 -20 11 -45 1z"/>
<path d="M510 927 c0 -3 24 -23 53 -46 50 -38 145 -82 132 -61 -3 6 -12 10
-19 10 -7 0 -41 19 -77 43 -81 54 -89 59 -89 54z"/>
<path d="M590 925 c0 -5 99 -55 108 -55 10 0 -57 40 -85 51 -13 5 -23 7 -23 4z"/>
<path d="M717 919 c7 -7 15 -10 18 -7 3 3 -2 9 -12 12 -14 6 -15 5 -6 -5z"/>
<path d="M6778 923 c7 -3 16 -2 19 1 4 3 -2 6 -13 5 -11 0 -14 -3 -6 -6z"/>
<path d="M6713 913 c9 -2 23 -2 30 0 6 3 -1 5 -18 5 -16 0 -22 -2 -12 -5z"/>
<path d="M770 890 c8 -5 20 -10 25 -10 6 0 3 5 -5 10 -8 5 -19 10 -25 10 -5 0
-3 -5 5 -10z"/>
<path d="M906 885 c-3 -9 -6 -24 -5 -33 0 -9 5 -4 10 12 9 32 6 48 -5 21z"/>
<path d="M526 852 c12 -9 37 -26 55 -37 18 -11 49 -30 69 -42 41 -26 58 -29
40 -8 -7 8 -18 15 -24 15 -6 0 -42 20 -79 45 -69 45 -101 59 -61 27z"/>
<path d="M734 856 c11 -9 24 -16 30 -16 12 0 7 5 -24 19 -24 11 -24 11 -6 -3z"/>
<path d="M6200 839 c-36 -22 -126 -57 -170 -65 -34 -7 -38 -14 -9 -14 40 0
130 27 186 54 28 14 56 26 62 26 6 0 11 5 11 10 0 17 -43 11 -80 -11z"/>
<path d="M866 837 c3 -10 9 -15 12 -12 3 3 0 11 -7 18 -10 9 -11 8 -5 -6z"/>
<path d="M845 817 c-20 -23 -29 -41 -17 -33 8 5 10 2 6 -8 -4 -10 -1 -16 8
-16 9 0 14 12 14 35 0 19 0 35 0 35 -1 -1 -6 -6 -11 -13z"/>
<path d="M561 772 c42 -32 81 -54 85 -49 6 5 -85 67 -99 67 -5 0 1 -8 14 -18z"/>
<path d="M776 774 c-4 -9 -4 -19 -1 -22 2 -3 7 3 11 12 4 9 4 19 1 22 -2 3 -7
-3 -11 -12z"/>
<path d="M6365 769 c-4 -6 -5 -12 -2 -15 2 -3 7 2 10 11 7 17 1 20 -8 4z"/>
<path d="M5958 743 c6 -2 18 -2 25 0 6 3 1 5 -13 5 -14 0 -19 -2 -12 -5z"/>
<path d="M550 720 c32 -27 80 -53 87 -47 4 5 -4 10 -78 50 l-34 18 25 -21z"/>
<path d="M846 716 c-2 -12 -4 -34 -4 -51 0 -16 -5 -31 -11 -33 -6 -2 -11 -11
-12 -20 0 -14 -2 -13 -9 3 -9 18 -9 18 -8 -5 3 -40 -14 -140 -22 -135 -11 7
-20 -39 -20 -105 0 -30 -1 -74 -2 -98 -2 -23 0 -43 4 -45 4 -1 4 -15 0 -32 -5
-16 -11 -24 -15 -18 -9 14 -10 209 -3 283 l6 55 -15 -50 c-21 -70 -22 -465 -1
-465 10 0 13 12 10 48 -4 52 1 47 11 -10 l6 -37 89 0 90 0 -16 37 c-61 138
-77 226 -77 422 0 126 4 178 16 219 9 30 17 55 17 56 0 1 -7 2 -15 2 -9 0 -17
-10 -19 -21z m-16 -197 c0 -5 -4 -7 -10 -4 -6 3 -10 -4 -11 -17 0 -13 -3 -17
-6 -10 -3 7 -2 19 1 27 6 17 26 20 26 4z m-42 -201 l-2 -143 -5 115 c-4 63 -4
127 -2 143 8 60 11 20 9 -115z m36 124 c-6 -4 -14 -14 -17 -22 -4 -10 -6 -8
-6 7 -1 12 5 23 12 26 16 6 24 -2 11 -11z m-15 -361 c1 -35 -5 -22 -12 24 -5
28 -4 34 3 20 5 -11 9 -31 9 -44z m50 -46 c0 -5 -4 -3 -9 5 -5 8 -9 22 -9 30
0 16 17 -16 18 -35z"/>
<path d="M786 684 c-4 -14 -5 -29 -2 -31 3 -3 8 7 12 21 3 15 4 29 1 32 -2 3
-8 -7 -11 -22z"/>
<path d="M6630 690 c0 -5 7 -7 15 -4 8 4 15 8 15 10 0 2 -7 4 -15 4 -8 0 -15
-4 -15 -10z"/>
<path d="M6580 680 c-9 -6 -10 -10 -3 -10 6 0 15 5 18 10 8 12 4 12 -15 0z"/>
<path d="M6497 649 c-22 -11 -37 -23 -34 -25 3 -3 27 6 54 20 26 14 41 25 33
25 -8 0 -32 -9 -53 -20z"/>
<path d="M566 645 c10 -8 24 -14 29 -14 6 0 1 6 -9 14 -11 8 -24 15 -30 15 -5
0 -1 -7 10 -15z"/>
<path d="M385 640 c3 -5 8 -10 11 -10 2 0 4 5 4 10 0 6 -5 10 -11 10 -5 0 -7
-4 -4 -10z"/>
<path d="M727 613 c-4 -3 -7 -18 -6 -32 1 -26 1 -25 10 3 9 31 7 41 -4 29z"/>
<path d="M540 600 c0 -5 5 -10 11 -10 5 0 7 5 4 10 -3 6 -8 10 -11 10 -2 0 -4
-4 -4 -10z"/>
<path d="M6554 598 c-3 -4 2 -8 10 -8 8 0 17 4 20 8 3 5 -2 9 -10 9 -8 0 -17
-4 -20 -9z"/>
<path d="M364 585 c11 -8 27 -15 35 -15 10 1 7 6 -9 15 -33 19 -50 18 -26 0z"/>
<path d="M761 584 c0 -11 3 -14 6 -6 3 7 2 16 -1 19 -3 4 -6 -2 -5 -13z"/>
<path d="M682 560 c0 -14 2 -19 5 -12 2 6 2 18 0 25 -3 6 -5 1 -5 -13z"/>
<path d="M752 540 c0 -14 2 -19 5 -12 2 6 2 18 0 25 -3 6 -5 1 -5 -13z"/>
<path d="M706 534 c-4 -9 -4 -19 -1 -22 2 -3 7 3 11 12 4 9 4 19 1 22 -2 3 -7
-3 -11 -12z"/>
<path d="M771 504 c0 -11 3 -14 6 -6 3 7 2 16 -1 19 -3 4 -6 -2 -5 -13z"/>
<path d="M611 484 c0 -11 3 -14 6 -6 3 7 2 16 -1 19 -3 4 -6 -2 -5 -13z"/>
<path d="M280 483 c0 -12 49 -57 78 -72 12 -6 22 -8 22 -4 -1 11 -100 86 -100
76z"/>
<path d="M692 455 c0 -16 2 -22 5 -12 2 9 2 23 0 30 -3 6 -5 -1 -5 -18z"/>
<path d="M6860 449 c0 -5 5 -7 10 -4 6 3 10 8 10 11 0 2 -4 4 -10 4 -5 0 -10
-5 -10 -11z"/>
<path d="M6516 435 c-11 -8 -15 -15 -10 -15 6 0 19 7 30 15 10 8 15 14 9 14
-5 0 -19 -6 -29 -14z"/>
<path d="M556 373 c-12 -88 -19 -373 -10 -373 5 0 9 42 10 93 0 50 3 145 8
210 7 120 4 155 -8 70z"/>
<path d="M6625 410 c-3 -6 1 -7 9 -4 18 7 21 14 7 14 -6 0 -13 -4 -16 -10z"/>
<path d="M683 375 c0 -22 2 -30 4 -17 2 12 2 30 0 40 -3 9 -5 -1 -4 -23z"/>
<path d="M390 390 c0 -5 5 -10 11 -10 5 0 7 5 4 10 -3 6 -8 10 -11 10 -2 0 -4
-4 -4 -10z"/>
<path d="M6450 390 c-9 -6 -10 -10 -3 -10 6 0 15 5 18 10 8 12 4 12 -15 0z"/>
<path d="M650 375 c0 -8 -3 -15 -7 -15 -5 0 -7 -34 -5 -75 2 -41 0 -75 -5 -75
-5 0 -7 27 -5 61 3 47 0 60 -10 57 -7 -3 -16 -20 -19 -39 -5 -28 -7 -29 -8 -9
-2 14 -5 19 -8 12 -3 -7 0 -26 6 -42 5 -17 6 -30 2 -30 -5 0 -11 -11 -13 -25
-3 -14 -1 -25 5 -25 7 0 7 -4 -1 -12 -7 -7 -12 -42 -12 -85 l0 -73 50 1 c49 2
50 2 43 28 -4 14 -7 101 -8 194 0 92 -1 167 -2 167 -2 0 -3 -7 -3 -15z m-13
-227 c-3 -8 -6 -5 -6 6 -1 11 2 17 5 13 3 -3 4 -12 1 -19z m0 -80 c-2 -13 -4
-5 -4 17 -1 22 1 32 4 23 2 -10 2 -28 0 -40z m-40 -35 c-3 -10 -5 -2 -5 17 0
19 2 27 5 18 2 -10 2 -26 0 -35z"/>
<path d="M592 355 c0 -16 2 -22 5 -12 2 9 2 23 0 30 -3 6 -5 -1 -5 -18z"/>
<path d="M6670 353 c-30 -16 -57 -30 -60 -33 -3 -3 -10 -6 -17 -7 -6 -1 -31
-16 -56 -33 -25 -16 -48 -30 -51 -30 -4 0 -12 -4 -19 -10 -52 -41 -69 -59 -54
-54 9 3 17 9 17 13 0 4 10 13 23 19 12 6 40 23 62 36 22 14 82 46 133 71 50
26 92 49 92 51 0 9 -19 3 -70 -23z"/>
<path d="M510 305 c0 -32 2 -56 4 -54 8 7 10 98 3 105 -4 4 -7 -19 -7 -51z"/>
<path d="M6358 324 c-56 -47 -91 -87 -118 -138 l-21 -41 23 30 c51 65 102 121
129 140 25 17 46 45 35 45 -2 0 -24 -16 -48 -36z"/>
<path d="M265 338 c7 -16 75 -62 75 -50 0 5 -12 17 -27 28 -45 32 -53 36 -48
22z"/>
<path d="M355 340 c3 -5 8 -10 11 -10 2 0 4 5 4 10 0 6 -5 10 -11 10 -5 0 -7
-4 -4 -10z"/>
<path d="M472 258 c-12 -85 -16 -266 -6 -256 3 4 7 53 10 111 2 58 8 133 12
166 5 34 6 61 2 61 -4 0 -12 -37 -18 -82z"/>
<path d="M676 168 c6 -160 8 -177 20 -166 9 9 -8 328 -18 328 -5 0 -6 -71 -2
-162z"/>
<path d="M444 268 c-7 -49 -8 -50 -15 -23 -3 17 -8 23 -9 15 -2 -8 -4 -19 -5
-25 -2 -5 -4 -19 -5 -30 -2 -17 -3 -17 -10 5 l-8 25 -1 -28 c-1 -15 -4 -26 -8
-26 -22 4 -33 -2 -27 -13 5 -9 2 -9 -9 1 -14 11 -17 11 -17 0 0 -11 -2 -11
-10 1 -6 10 -10 11 -10 3 0 -20 4 -28 12 -26 5 2 8 -7 8 -20 0 -18 -2 -19 -10
-7 -9 13 -11 13 -20 0 -5 -8 -10 -27 -10 -42 0 -15 -4 -38 -10 -52 l-10 -26
70 0 70 0 1 58 c0 31 5 80 9 107 6 35 7 17 3 -60 -5 -108 6 -146 13 -43 2 29
9 97 15 151 12 103 7 146 -7 55z"/>
<path d="M6713 295 c-36 -15 -41 -22 -18 -22 8 0 15 4 15 9 0 5 4 7 9 4 5 -3
14 1 21 9 15 18 14 18 -27 0z"/>
<path d="M6335 213 c-42 -43 -85 -94 -95 -113 -11 -19 -30 -48 -44 -65 l-24
-30 13 53 c8 28 17 58 21 65 5 8 4 9 -4 2 -6 -5 -22 -36 -36 -67 l-25 -58 40
0 c21 0 39 4 39 10 0 30 116 191 179 247 20 18 31 33 24 33 -6 0 -46 -35 -88
-77z"/>
<path d="M6648 254 c-4 -3 -12 -6 -20 -7 -13 -2 -109 -59 -178 -105 -66 -43
-158 -142 -133 -142 4 0 22 15 38 34 40 45 131 116 180 141 22 11 52 29 66 40
15 11 35 25 45 32 11 6 16 12 13 12 -3 1 -8 -2 -11 -5z"/>
<path d="M500 115 c0 -63 4 -115 8 -115 5 0 8 52 8 115 -1 63 -4 115 -8 115
-5 0 -8 -52 -8 -115z"/>
<path d="M6207 213 c-4 -3 -7 -11 -7 -17 0 -6 5 -5 12 2 6 6 9 14 7 17 -3 3
-9 2 -12 -2z"/>
<path d="M276 165 c-3 -9 -6 -22 -5 -28 0 -7 5 -1 10 12 5 13 8 26 5 28 -2 2
-6 -3 -10 -12z"/>
<path d="M6178 155 c-9 -17 -41 -57 -72 -90 -43 -47 -52 -61 -39 -64 33 -7
142 139 130 173 -2 6 -11 -3 -19 -19z"/>
<path d="M6369 157 c-13 -10 -67 -74 -122 -144 -7 -10 -4 -13 9 -13 12 0 25
12 33 31 8 18 34 56 58 85 24 30 42 54 41 54 -2 0 -10 -6 -19 -13z"/>
<path d="M261 94 c0 -11 3 -14 6 -6 3 7 2 16 -1 19 -3 4 -6 -2 -5 -13z"/>
<path d="M217 73 c-12 -43 -17 -73 -13 -73 7 0 28 81 23 87 -3 2 -7 -4 -10
-14z"/>
<path d="M6479 72 c-43 -29 -94 -72 -85 -72 4 0 23 12 41 27 19 16 44 36 57
45 30 22 21 22 -13 0z"/>
<path d="M36 67 c6 -17 125 -67 139 -59 5 3 -14 16 -42 28 -28 13 -54 28 -58
33 -9 16 -45 14 -39 -2z"/>
<path d="M253 35 c0 -22 2 -30 4 -17 2 12 2 30 0 40 -3 9 -5 -1 -4 -23z"/>
<path d="M0 34 c0 -29 1 -30 48 -32 l47 -1 -39 18 c-21 10 -42 25 -47 32 -6
10 -9 4 -9 -17z"/>
</g>
</svg>
